<svg viewBox="0 0 1056 608"  version="1.1" xmlns="http://www.w3.org/2000/svg">
<g id="qubit_lines">
<path id="qubit_line:0" d="M64,64 L1024,64 " stroke="black"/>
<text dominant-baseline="central" text-anchor="end" font-family="monospace" font-size="12" x="64" y="64">q0</text>
<path id="qubit_line:1" d="M64,128 L1024,128 " stroke="black"/>
<text dominant-baseline="central" text-anchor="end" font-family="monospace" font-size="12" x="64" y="128">q1</text>
<path id="qubit_line:2" d="M64,192 L1024,192 " stroke="black"/>
<text dominant-baseline="central" text-anchor="end" font-family="monospace" font-size="12" x="64" y="192">q2</text>
<path id="qubit_line:3" d="M64,256 L1024,256 " stroke="black"/>
<text dominant-baseline="central" text-anchor="end" font-family="monospace" font-size="12" x="64" y="256">q3</text>
<path id="qubit_line:4" d="M64,320 L1024,320 " stroke="black"/>
<text dominant-baseline="central" text-anchor="end" font-family="monospace" font-size="12" x="64" y="320">q4</text>
<path id="qubit_line:5" d="M64,384 L1024,384 " stroke="black"/>
<text dominant-baseline="central" text-anchor="end" font-family="monospace" font-size="12" x="64" y="384">q5</text>
<path id="qubit_line:6" d="M64,448 L1024,448 " stroke="black"/>
<text dominant-baseline="central" text-anchor="end" font-family="monospace" font-size="12" x="64" y="448">q6</text>
<path id="qubit_line:7" d="M64,512 L1024,512 " stroke="black"/>
<text dominant-baseline="central" text-anchor="end" font-family="monospace" font-size="12" x="64" y="512">q7</text>
</g>
<rect x="80" y="48" width="32" height="32" stroke="black" fill="black"/>
<text dominant-baseline="central" text-anchor="middle" font-family="monospace" font-size="30" x="96" y="64" fill="white">R</text>
<rect x="80" y="112" width="32" height="32" stroke="black" fill="black"/>
<text dominant-baseline="central" text-anchor="middle" font-family="monospace" font-size="30" x="96" y="128" fill="white">R</text>
<rect x="80" y="176" width="32" height="32" stroke="black" fill="black"/>
<text dominant-baseline="central" text-anchor="middle" font-family="monospace" font-size="30" x="96" y="192" fill="white">R</text>
<rect x="80" y="240" width="32" height="32" stroke="black" fill="black"/>
<text dominant-baseline="central" text-anchor="middle" font-family="monospace" font-size="30" x="96" y="256" fill="white">R</text>
<rect x="80" y="304" width="32" height="32" stroke="black" fill="black"/>
<text dominant-baseline="central" text-anchor="middle" font-family="monospace" font-size="30" x="96" y="320" fill="white">R</text>
<rect x="80" y="368" width="32" height="32" stroke="black" fill="black"/>
<text dominant-baseline="central" text-anchor="middle" font-family="monospace" font-size="30" x="96" y="384" fill="white">R</text>
<rect x="80" y="432" width="32" height="32" stroke="black" fill="black"/>
<text dominant-baseline="central" text-anchor="middle" font-family="monospace" font-size="30" x="96" y="448" fill="white">R</text>
<rect x="80" y="496" width="32" height="32" stroke="black" fill="black"/>
<text dominant-baseline="central" text-anchor="middle" font-family="monospace" font-size="30" x="96" y="512" fill="white">R</text>
<rect x="144" y="48" width="32" height="32" stroke="black" fill="white"/>
<text dominant-baseline="central" text-anchor="middle" font-family="monospace" font-size="30" x="160" y="64">H</text>
<rect x="144" y="304" width="32" height="32" stroke="black" fill="white"/>
<text dominant-baseline="central" text-anchor="middle" font-family="monospace" font-size="30" x="160" y="320">H</text>
<rect x="144" y="432" width="32" height="32" stroke="black" fill="white"/>
<text dominant-baseline="central" text-anchor="middle" font-family="monospace" font-size="30" x="160" y="448">H</text>
<path d="M68,40 L68,32 L188,32 L188,40 " stroke="black" fill="none"/>
<path d="M68,568 L68,576 L188,576 L188,568 " stroke="black" fill="none"/>
<path d="M224,64 L224,128 " stroke="black"/>
<circle cx="224" cy="64" r="12" stroke="none" fill="black"/>
<circle cx="224" cy="128" r="12" stroke="black" fill="white"/>
<path d="M212,128 L236,128 M224,116 L224,140 " stroke="black"/>
<path d="M224,320 L224,384 " stroke="black"/>
<circle cx="224" cy="320" r="12" stroke="none" fill="black"/>
<circle cx="224" cy="384" r="12" stroke="black" fill="white"/>
<path d="M212,384 L236,384 M224,372 L224,396 " stroke="black"/>
<path d="M288,256 L288,448 " stroke="black"/>
<circle cx="288" cy="448" r="12" stroke="none" fill="black"/>
<circle cx="288" cy="256" r="12" stroke="black" fill="white"/>
<path d="M276,256 L300,256 M288,244 L288,268 " stroke="black"/>
<path d="M196,40 L196,32 L316,32 L316,40 " stroke="black" fill="none"/>
<path d="M196,568 L196,576 L316,576 L316,568 " stroke="black" fill="none"/>
<path d="M352,384 L352,448 " stroke="black"/>
<circle cx="352" cy="448" r="12" stroke="none" fill="black"/>
<circle cx="352" cy="384" r="12" stroke="black" fill="white"/>
<path d="M340,384 L364,384 M352,372 L352,396 " stroke="black"/>
<path d="M352,192 L352,320 " stroke="black"/>
<circle cx="352" cy="320" r="12" stroke="none" fill="black"/>
<circle cx="352" cy="192" r="12" stroke="black" fill="white"/>
<path d="M340,192 L364,192 M352,180 L352,204 " stroke="black"/>
<path d="M416,64 L416,256 " stroke="black"/>
<circle cx="416" cy="64" r="12" stroke="none" fill="black"/>
<circle cx="416" cy="256" r="12" stroke="black" fill="white"/>
<path d="M404,256 L428,256 M416,244 L416,268 " stroke="black"/>
<path d="M324,40 L324,32 L444,32 L444,40 " stroke="black" fill="none"/>
<path d="M324,568 L324,576 L444,576 L444,568 " stroke="black" fill="none"/>
<path d="M480,128 L480,320 " stroke="black"/>
<circle cx="480" cy="320" r="12" stroke="none" fill="black"/>
<circle cx="480" cy="128" r="12" stroke="black" fill="white"/>
<path d="M468,128 L492,128 M480,116 L480,140 " stroke="black"/>
<path d="M544,192 L544,256 " stroke="black"/>
<circle cx="544" cy="256" r="12" stroke="none" fill="black"/>
<circle cx="544" cy="192" r="12" stroke="black" fill="white"/>
<path d="M532,192 L556,192 M544,180 L544,204 " stroke="black"/>
<path d="M452,40 L452,32 L572,32 L572,40 " stroke="black" fill="none"/>
<path d="M452,568 L452,576 L572,576 L572,568 " stroke="black" fill="none"/>
<path d="M608,128 L608,512 " stroke="black"/>
<circle cx="608" cy="128" r="12" stroke="none" fill="black"/>
<circle cx="608" cy="512" r="12" stroke="black" fill="white"/>
<path d="M596,512 L620,512 M608,500 L608,524 " stroke="black"/>
<path d="M672,256 L672,512 " stroke="black"/>
<circle cx="672" cy="256" r="12" stroke="none" fill="black"/>
<circle cx="672" cy="512" r="12" stroke="black" fill="white"/>
<path d="M660,512 L684,512 M672,500 L672,524 " stroke="black"/>
<path d="M736,384 L736,512 " stroke="black"/>
<circle cx="736" cy="384" r="12" stroke="none" fill="black"/>
<circle cx="736" cy="512" r="12" stroke="black" fill="white"/>
<path d="M724,512 L748,512 M736,500 L736,524 " stroke="black"/>
<path d="M580,40 L580,32 L764,32 L764,40 " stroke="black" fill="none"/>
<path d="M580,568 L580,576 L764,576 L764,568 " stroke="black" fill="none"/>
<rect x="784" y="496" width="32" height="32" stroke="black" fill="black"/>
<text dominant-baseline="central" text-anchor="middle" font-family="monospace" font-size="30" x="800" y="512" fill="white">M</text>
<text text-anchor="middle" font-family="monospace" font-size="8" x="800" y="492">rec[0]</text>
<rect x="848" y="496" width="160" height="32" stroke="black" fill="lightgray"/>
<text dominant-baseline="central" text-anchor="middle" font-family="monospace" font-size="16" x="928" y="512">DETECTOR</text>
<text text-anchor="middle" font-family="monospace" font-size="8" x="928" y="492">D0 = rec[0]</text>
<path d="M772,40 L772,32 L1020,32 L1020,40 " stroke="black" fill="none"/>
<path d="M772,568 L772,576 L1020,576 L1020,568 " stroke="black" fill="none"/>
</svg>
