<svg viewBox="0 0 8224 992"  version="1.1" xmlns="http://www.w3.org/2000/svg">
<g id="qubit_lines">
<path id="qubit_line:0" d="M64,64 L8192,64 " stroke="black"/>
<text dominant-baseline="central" text-anchor="end" font-family="monospace" font-size="12" x="64" y="64">q0</text>
<path id="qubit_line:1" d="M64,128 L8192,128 " stroke="black"/>
<text dominant-baseline="central" text-anchor="end" font-family="monospace" font-size="12" x="64" y="128">q1</text>
<path id="qubit_line:2" d="M64,192 L8192,192 " stroke="black"/>
<text dominant-baseline="central" text-anchor="end" font-family="monospace" font-size="12" x="64" y="192">q2</text>
<path id="qubit_line:3" d="M64,256 L8192,256 " stroke="black"/>
<text dominant-baseline="central" text-anchor="end" font-family="monospace" font-size="12" x="64" y="256">q3</text>
<path id="qubit_line:4" d="M64,320 L8192,320 " stroke="black"/>
<text dominant-baseline="central" text-anchor="end" font-family="monospace" font-size="12" x="64" y="320">q4</text>
<path id="qubit_line:5" d="M64,384 L8192,384 " stroke="black"/>
<text dominant-baseline="central" text-anchor="end" font-family="monospace" font-size="12" x="64" y="384">q5</text>
<path id="qubit_line:6" d="M64,448 L8192,448 " stroke="black"/>
<text dominant-baseline="central" text-anchor="end" font-family="monospace" font-size="12" x="64" y="448">q6</text>
<path id="qubit_line:7" d="M64,512 L8192,512 " stroke="black"/>
<text dominant-baseline="central" text-anchor="end" font-family="monospace" font-size="12" x="64" y="512">q7</text>
<path id="qubit_line:8" d="M64,576 L8192,576 " stroke="black"/>
<text dominant-baseline="central" text-anchor="end" font-family="monospace" font-size="12" x="64" y="576">q8</text>
<path id="qubit_line:9" d="M64,640 L8192,640 " stroke="black"/>
<text dominant-baseline="central" text-anchor="end" font-family="monospace" font-size="12" x="64" y="640">q9</text>
<path id="qubit_line:10" d="M64,704 L8192,704 " stroke="black"/>
<text dominant-baseline="central" text-anchor="end" font-family="monospace" font-size="12" x="64" y="704">q10</text>
<path id="qubit_line:11" d="M64,768 L8192,768 " stroke="black"/>
<text dominant-baseline="central" text-anchor="end" font-family="monospace" font-size="12" x="64" y="768">q11</text>
<path id="qubit_line:12" d="M64,832 L8192,832 " stroke="black"/>
<text dominant-baseline="central" text-anchor="end" font-family="monospace" font-size="12" x="64" y="832">q12</text>
<path id="qubit_line:13" d="M64,896 L8192,896 " stroke="black"/>
<text dominant-baseline="central" text-anchor="end" font-family="monospace" font-size="12" x="64" y="896">q13</text>
</g>
<rect x="80" y="48" width="32" height="32" stroke="black" fill="black"/>
<text dominant-baseline="central" text-anchor="middle" font-family="monospace" font-size="30" x="96" y="64" fill="white">R</text>
<rect x="80" y="112" width="32" height="32" stroke="black" fill="black"/>
<text dominant-baseline="central" text-anchor="middle" font-family="monospace" font-size="30" x="96" y="128" fill="white">R</text>
<rect x="80" y="176" width="32" height="32" stroke="black" fill="black"/>
<text dominant-baseline="central" text-anchor="middle" font-family="monospace" font-size="30" x="96" y="192" fill="white">R</text>
<rect x="80" y="240" width="32" height="32" stroke="black" fill="black"/>
<text dominant-baseline="central" text-anchor="middle" font-family="monospace" font-size="30" x="96" y="256" fill="white">R</text>
<rect x="80" y="304" width="32" height="32" stroke="black" fill="black"/>
<text dominant-baseline="central" text-anchor="middle" font-family="monospace" font-size="30" x="96" y="320" fill="white">R</text>
<rect x="80" y="368" width="32" height="32" stroke="black" fill="black"/>
<text dominant-baseline="central" text-anchor="middle" font-family="monospace" font-size="30" x="96" y="384" fill="white">R</text>
<rect x="80" y="432" width="32" height="32" stroke="black" fill="black"/>
<text dominant-baseline="central" text-anchor="middle" font-family="monospace" font-size="30" x="96" y="448" fill="white">R</text>
<rect x="80" y="496" width="32" height="32" stroke="black" fill="black"/>
<text dominant-baseline="central" text-anchor="middle" font-family="monospace" font-size="30" x="96" y="512" fill="white">R</text>
<rect x="144" y="48" width="32" height="32" stroke="black" fill="white"/>
<text dominant-baseline="central" text-anchor="middle" font-family="monospace" font-size="30" x="160" y="64">H</text>
<rect x="144" y="304" width="32" height="32" stroke="black" fill="white"/>
<text dominant-baseline="central" text-anchor="middle" font-family="monospace" font-size="30" x="160" y="320">H</text>
<rect x="144" y="432" width="32" height="32" stroke="black" fill="white"/>
<text dominant-baseline="central" text-anchor="middle" font-family="monospace" font-size="30" x="160" y="448">H</text>
<path d="M68,40 L68,32 L188,32 L188,40 " stroke="black" fill="none"/>
<path d="M68,952 L68,960 L188,960 L188,952 " stroke="black" fill="none"/>
<path d="M224,64 L224,128 " stroke="black"/>
<circle cx="224" cy="64" r="12" stroke="none" fill="black"/>
<circle cx="224" cy="128" r="12" stroke="black" fill="white"/>
<path d="M212,128 L236,128 M224,116 L224,140 " stroke="black"/>
<path d="M224,320 L224,384 " stroke="black"/>
<circle cx="224" cy="320" r="12" stroke="none" fill="black"/>
<circle cx="224" cy="384" r="12" stroke="black" fill="white"/>
<path d="M212,384 L236,384 M224,372 L224,396 " stroke="black"/>
<path d="M288,256 L288,448 " stroke="black"/>
<circle cx="288" cy="448" r="12" stroke="none" fill="black"/>
<circle cx="288" cy="256" r="12" stroke="black" fill="white"/>
<path d="M276,256 L300,256 M288,244 L288,268 " stroke="black"/>
<path d="M196,40 L196,32 L316,32 L316,40 " stroke="black" fill="none"/>
<path d="M196,952 L196,960 L316,960 L316,952 " stroke="black" fill="none"/>
<path d="M352,384 L352,448 " stroke="black"/>
<circle cx="352" cy="448" r="12" stroke="none" fill="black"/>
<circle cx="352" cy="384" r="12" stroke="black" fill="white"/>
<path d="M340,384 L364,384 M352,372 L352,396 " stroke="black"/>
<path d="M352,192 L352,320 " stroke="black"/>
<circle cx="352" cy="320" r="12" stroke="none" fill="black"/>
<circle cx="352" cy="192" r="12" stroke="black" fill="white"/>
<path d="M340,192 L364,192 M352,180 L352,204 " stroke="black"/>
<path d="M416,64 L416,256 " stroke="black"/>
<circle cx="416" cy="64" r="12" stroke="none" fill="black"/>
<circle cx="416" cy="256" r="12" stroke="black" fill="white"/>
<path d="M404,256 L428,256 M416,244 L416,268 " stroke="black"/>
<path d="M324,40 L324,32 L444,32 L444,40 " stroke="black" fill="none"/>
<path d="M324,952 L324,960 L444,960 L444,952 " stroke="black" fill="none"/>
<path d="M480,128 L480,320 " stroke="black"/>
<circle cx="480" cy="320" r="12" stroke="none" fill="black"/>
<circle cx="480" cy="128" r="12" stroke="black" fill="white"/>
<path d="M468,128 L492,128 M480,116 L480,140 " stroke="black"/>
<path d="M544,192 L544,256 " stroke="black"/>
<circle cx="544" cy="256" r="12" stroke="none" fill="black"/>
<circle cx="544" cy="192" r="12" stroke="black" fill="white"/>
<path d="M532,192 L556,192 M544,180 L544,204 " stroke="black"/>
<path d="M452,40 L452,32 L572,32 L572,40 " stroke="black" fill="none"/>
<path d="M452,952 L452,960 L572,960 L572,952 " stroke="black" fill="none"/>
<path d="M608,128 L608,512 " stroke="black"/>
<circle cx="608" cy="128" r="12" stroke="none" fill="black"/>
<circle cx="608" cy="512" r="12" stroke="black" fill="white"/>
<path d="M596,512 L620,512 M608,500 L608,524 " stroke="black"/>
<path d="M672,256 L672,512 " stroke="black"/>
<circle cx="672" cy="256" r="12" stroke="none" fill="black"/>
<circle cx="672" cy="512" r="12" stroke="black" fill="white"/>
<path d="M660,512 L684,512 M672,500 L672,524 " stroke="black"/>
<path d="M736,384 L736,512 " stroke="black"/>
<circle cx="736" cy="384" r="12" stroke="none" fill="black"/>
<circle cx="736" cy="512" r="12" stroke="black" fill="white"/>
<path d="M724,512 L748,512 M736,500 L736,524 " stroke="black"/>
<path d="M580,40 L580,32 L764,32 L764,40 " stroke="black" fill="none"/>
<path d="M580,952 L580,960 L764,960 L764,952 " stroke="black" fill="none"/>
<rect x="784" y="496" width="32" height="32" stroke="black" fill="black"/>
<text dominant-baseline="central" text-anchor="middle" font-family="monospace" font-size="30" x="800" y="512" fill="white">M</text>
<text text-anchor="middle" font-family="monospace" font-size="8" x="800" y="492">rec[0]</text>
<rect x="848" y="496" width="160" height="32" stroke="black" fill="lightgray"/>
<text dominant-baseline="central" text-anchor="middle" font-family="monospace" font-size="16" x="928" y="512">DETECTOR</text>
<text text-anchor="middle" font-family="monospace" font-size="8" x="928" y="492">D0 = rec[0]</text>
<path d="M772,40 L772,32 L1020,32 L1020,40 " stroke="black" fill="none"/>
<path d="M772,952 L772,960 L1020,960 L1020,952 " stroke="black" fill="none"/>
<rect x="1040" y="560" width="32" height="32" stroke="black" fill="black"/>
<text dominant-baseline="central" text-anchor="middle" font-family="monospace" font-size="30" x="1056" y="576" fill="white">R</text>
<rect x="1040" y="624" width="32" height="32" stroke="black" fill="black"/>
<text dominant-baseline="central" text-anchor="middle" font-family="monospace" font-size="30" x="1056" y="640" fill="white">R</text>
<rect x="1040" y="688" width="32" height="32" stroke="black" fill="black"/>
<text dominant-baseline="central" text-anchor="middle" font-family="monospace" font-size="30" x="1056" y="704" fill="white">R</text>
<rect x="1040" y="752" width="32" height="32" stroke="black" fill="black"/>
<text dominant-baseline="central" text-anchor="middle" font-family="monospace" font-size="30" x="1056" y="768" fill="white">R</text>
<rect x="1040" y="816" width="32" height="32" stroke="black" fill="black"/>
<text dominant-baseline="central" text-anchor="middle" font-family="monospace" font-size="30" x="1056" y="832" fill="white">R</text>
<rect x="1040" y="880" width="32" height="32" stroke="black" fill="black"/>
<text dominant-baseline="central" text-anchor="middle" font-family="monospace" font-size="30" x="1056" y="896" fill="white">R</text>
<rect x="1104" y="752" width="32" height="32" stroke="black" fill="white"/>
<text dominant-baseline="central" text-anchor="middle" font-family="monospace" font-size="30" x="1120" y="768">H</text>
<rect x="1104" y="816" width="32" height="32" stroke="black" fill="white"/>
<text dominant-baseline="central" text-anchor="middle" font-family="monospace" font-size="30" x="1120" y="832">H</text>
<rect x="1104" y="880" width="32" height="32" stroke="black" fill="white"/>
<text dominant-baseline="central" text-anchor="middle" font-family="monospace" font-size="30" x="1120" y="896">H</text>
<path d="M1120,256 L1120,576 " stroke="black"/>
<circle cx="1120" cy="256" r="12" stroke="none" fill="black"/>
<circle cx="1120" cy="576" r="12" stroke="black" fill="white"/>
<path d="M1108,576 L1132,576 M1120,564 L1120,588 " stroke="black"/>
<path d="M1184,320 L1184,576 " stroke="black"/>
<circle cx="1184" cy="320" r="12" stroke="none" fill="black"/>
<circle cx="1184" cy="576" r="12" stroke="black" fill="white"/>
<path d="M1172,576 L1196,576 M1184,564 L1184,588 " stroke="black"/>
<path d="M1248,384 L1248,576 " stroke="black"/>
<circle cx="1248" cy="384" r="12" stroke="none" fill="black"/>
<circle cx="1248" cy="576" r="12" stroke="black" fill="white"/>
<path d="M1236,576 L1260,576 M1248,564 L1248,588 " stroke="black"/>
<path d="M1312,448 L1312,576 " stroke="black"/>
<circle cx="1312" cy="448" r="12" stroke="none" fill="black"/>
<circle cx="1312" cy="576" r="12" stroke="black" fill="white"/>
<path d="M1300,576 L1324,576 M1312,564 L1312,588 " stroke="black"/>
<path d="M1376,128 L1376,640 " stroke="black"/>
<circle cx="1376" cy="128" r="12" stroke="none" fill="black"/>
<circle cx="1376" cy="640" r="12" stroke="black" fill="white"/>
<path d="M1364,640 L1388,640 M1376,628 L1376,652 " stroke="black"/>
<path d="M1440,192 L1440,640 " stroke="black"/>
<circle cx="1440" cy="192" r="12" stroke="none" fill="black"/>
<circle cx="1440" cy="640" r="12" stroke="black" fill="white"/>
<path d="M1428,640 L1452,640 M1440,628 L1440,652 " stroke="black"/>
<path d="M1504,384 L1504,640 " stroke="black"/>
<circle cx="1504" cy="384" r="12" stroke="none" fill="black"/>
<circle cx="1504" cy="640" r="12" stroke="black" fill="white"/>
<path d="M1492,640 L1516,640 M1504,628 L1504,652 " stroke="black"/>
<path d="M1568,448 L1568,640 " stroke="black"/>
<circle cx="1568" cy="448" r="12" stroke="none" fill="black"/>
<circle cx="1568" cy="640" r="12" stroke="black" fill="white"/>
<path d="M1556,640 L1580,640 M1568,628 L1568,652 " stroke="black"/>
<path d="M1632,64 L1632,704 " stroke="black"/>
<circle cx="1632" cy="64" r="12" stroke="none" fill="black"/>
<circle cx="1632" cy="704" r="12" stroke="black" fill="white"/>
<path d="M1620,704 L1644,704 M1632,692 L1632,716 " stroke="black"/>
<path d="M1696,192 L1696,704 " stroke="black"/>
<circle cx="1696" cy="192" r="12" stroke="none" fill="black"/>
<circle cx="1696" cy="704" r="12" stroke="black" fill="white"/>
<path d="M1684,704 L1708,704 M1696,692 L1696,716 " stroke="black"/>
<path d="M1760,320 L1760,704 " stroke="black"/>
<circle cx="1760" cy="320" r="12" stroke="none" fill="black"/>
<circle cx="1760" cy="704" r="12" stroke="black" fill="white"/>
<path d="M1748,704 L1772,704 M1760,692 L1760,716 " stroke="black"/>
<path d="M1824,448 L1824,704 " stroke="black"/>
<circle cx="1824" cy="448" r="12" stroke="none" fill="black"/>
<circle cx="1824" cy="704" r="12" stroke="black" fill="white"/>
<path d="M1812,704 L1836,704 M1824,692 L1824,716 " stroke="black"/>
<path d="M1888,256 L1888,768 " stroke="black"/>
<circle cx="1888" cy="768" r="12" stroke="none" fill="black"/>
<circle cx="1888" cy="256" r="12" stroke="black" fill="white"/>
<path d="M1876,256 L1900,256 M1888,244 L1888,268 " stroke="black"/>
<path d="M1952,320 L1952,768 " stroke="black"/>
<circle cx="1952" cy="768" r="12" stroke="none" fill="black"/>
<circle cx="1952" cy="320" r="12" stroke="black" fill="white"/>
<path d="M1940,320 L1964,320 M1952,308 L1952,332 " stroke="black"/>
<path d="M2016,384 L2016,768 " stroke="black"/>
<circle cx="2016" cy="768" r="12" stroke="none" fill="black"/>
<circle cx="2016" cy="384" r="12" stroke="black" fill="white"/>
<path d="M2004,384 L2028,384 M2016,372 L2016,396 " stroke="black"/>
<path d="M2080,448 L2080,768 " stroke="black"/>
<circle cx="2080" cy="768" r="12" stroke="none" fill="black"/>
<circle cx="2080" cy="448" r="12" stroke="black" fill="white"/>
<path d="M2068,448 L2092,448 M2080,436 L2080,460 " stroke="black"/>
<path d="M2144,128 L2144,832 " stroke="black"/>
<circle cx="2144" cy="832" r="12" stroke="none" fill="black"/>
<circle cx="2144" cy="128" r="12" stroke="black" fill="white"/>
<path d="M2132,128 L2156,128 M2144,116 L2144,140 " stroke="black"/>
<path d="M2208,192 L2208,832 " stroke="black"/>
<circle cx="2208" cy="832" r="12" stroke="none" fill="black"/>
<circle cx="2208" cy="192" r="12" stroke="black" fill="white"/>
<path d="M2196,192 L2220,192 M2208,180 L2208,204 " stroke="black"/>
<path d="M2272,384 L2272,832 " stroke="black"/>
<circle cx="2272" cy="832" r="12" stroke="none" fill="black"/>
<circle cx="2272" cy="384" r="12" stroke="black" fill="white"/>
<path d="M2260,384 L2284,384 M2272,372 L2272,396 " stroke="black"/>
<path d="M2336,448 L2336,832 " stroke="black"/>
<circle cx="2336" cy="832" r="12" stroke="none" fill="black"/>
<circle cx="2336" cy="448" r="12" stroke="black" fill="white"/>
<path d="M2324,448 L2348,448 M2336,436 L2336,460 " stroke="black"/>
<path d="M2400,64 L2400,896 " stroke="black"/>
<circle cx="2400" cy="896" r="12" stroke="none" fill="black"/>
<circle cx="2400" cy="64" r="12" stroke="black" fill="white"/>
<path d="M2388,64 L2412,64 M2400,52 L2400,76 " stroke="black"/>
<path d="M2464,192 L2464,896 " stroke="black"/>
<circle cx="2464" cy="896" r="12" stroke="none" fill="black"/>
<circle cx="2464" cy="192" r="12" stroke="black" fill="white"/>
<path d="M2452,192 L2476,192 M2464,180 L2464,204 " stroke="black"/>
<path d="M2528,320 L2528,896 " stroke="black"/>
<circle cx="2528" cy="896" r="12" stroke="none" fill="black"/>
<circle cx="2528" cy="320" r="12" stroke="black" fill="white"/>
<path d="M2516,320 L2540,320 M2528,308 L2528,332 " stroke="black"/>
<path d="M2592,448 L2592,896 " stroke="black"/>
<circle cx="2592" cy="896" r="12" stroke="none" fill="black"/>
<circle cx="2592" cy="448" r="12" stroke="black" fill="white"/>
<path d="M2580,448 L2604,448 M2592,436 L2592,460 " stroke="black"/>
<rect x="2640" y="752" width="32" height="32" stroke="black" fill="white"/>
<text dominant-baseline="central" text-anchor="middle" font-family="monospace" font-size="30" x="2656" y="768">H</text>
<rect x="2640" y="816" width="32" height="32" stroke="black" fill="white"/>
<text dominant-baseline="central" text-anchor="middle" font-family="monospace" font-size="30" x="2656" y="832">H</text>
<rect x="2640" y="880" width="32" height="32" stroke="black" fill="white"/>
<text dominant-baseline="central" text-anchor="middle" font-family="monospace" font-size="30" x="2656" y="896">H</text>
<rect x="2640" y="560" width="32" height="32" stroke="black" fill="black"/>
<text dominant-baseline="central" text-anchor="middle" font-family="monospace" font-size="30" x="2656" y="576" fill="white">M</text>
<text text-anchor="middle" font-family="monospace" font-size="8" x="2656" y="556">rec[1]</text>
<rect x="2640" y="624" width="32" height="32" stroke="black" fill="black"/>
<text dominant-baseline="central" text-anchor="middle" font-family="monospace" font-size="30" x="2656" y="640" fill="white">M</text>
<text text-anchor="middle" font-family="monospace" font-size="8" x="2656" y="620">rec[2]</text>
<rect x="2640" y="688" width="32" height="32" stroke="black" fill="black"/>
<text dominant-baseline="central" text-anchor="middle" font-family="monospace" font-size="30" x="2656" y="704" fill="white">M</text>
<text text-anchor="middle" font-family="monospace" font-size="8" x="2656" y="684">rec[3]</text>
<rect x="2704" y="752" width="32" height="32" stroke="black" fill="black"/>
<text dominant-baseline="central" text-anchor="middle" font-family="monospace" font-size="30" x="2720" y="768" fill="white">M</text>
<text text-anchor="middle" font-family="monospace" font-size="8" x="2720" y="748">rec[4]</text>
<rect x="2704" y="816" width="32" height="32" stroke="black" fill="black"/>
<text dominant-baseline="central" text-anchor="middle" font-family="monospace" font-size="30" x="2720" y="832" fill="white">M</text>
<text text-anchor="middle" font-family="monospace" font-size="8" x="2720" y="812">rec[5]</text>
<rect x="2704" y="880" width="32" height="32" stroke="black" fill="black"/>
<text dominant-baseline="central" text-anchor="middle" font-family="monospace" font-size="30" x="2720" y="896" fill="white">M</text>
<text text-anchor="middle" font-family="monospace" font-size="8" x="2720" y="876">rec[6]</text>
<path d="M1028,40 L1028,32 L2748,32 L2748,40 " stroke="black" fill="none"/>
<path d="M1028,952 L1028,960 L2748,960 L2748,952 " stroke="black" fill="none"/>
<rect x="2768" y="560" width="32" height="32" stroke="black" fill="black"/>
<text dominant-baseline="central" text-anchor="middle" font-family="monospace" font-size="30" x="2784" y="576" fill="white">R</text>
<rect x="2768" y="624" width="32" height="32" stroke="black" fill="black"/>
<text dominant-baseline="central" text-anchor="middle" font-family="monospace" font-size="30" x="2784" y="640" fill="white">R</text>
<rect x="2768" y="688" width="32" height="32" stroke="black" fill="black"/>
<text dominant-baseline="central" text-anchor="middle" font-family="monospace" font-size="30" x="2784" y="704" fill="white">R</text>
<rect x="2768" y="752" width="32" height="32" stroke="black" fill="black"/>
<text dominant-baseline="central" text-anchor="middle" font-family="monospace" font-size="30" x="2784" y="768" fill="white">R</text>
<rect x="2768" y="816" width="32" height="32" stroke="black" fill="black"/>
<text dominant-baseline="central" text-anchor="middle" font-family="monospace" font-size="30" x="2784" y="832" fill="white">R</text>
<rect x="2768" y="880" width="32" height="32" stroke="black" fill="black"/>
<text dominant-baseline="central" text-anchor="middle" font-family="monospace" font-size="30" x="2784" y="896" fill="white">R</text>
<rect x="2832" y="752" width="32" height="32" stroke="black" fill="white"/>
<text dominant-baseline="central" text-anchor="middle" font-family="monospace" font-size="30" x="2848" y="768">H</text>
<rect x="2832" y="816" width="32" height="32" stroke="black" fill="white"/>
<text dominant-baseline="central" text-anchor="middle" font-family="monospace" font-size="30" x="2848" y="832">H</text>
<rect x="2832" y="880" width="32" height="32" stroke="black" fill="white"/>
<text dominant-baseline="central" text-anchor="middle" font-family="monospace" font-size="30" x="2848" y="896">H</text>
<path d="M2848,256 L2848,576 " stroke="black"/>
<circle cx="2848" cy="256" r="12" stroke="none" fill="black"/>
<circle cx="2848" cy="576" r="12" stroke="black" fill="white"/>
<path d="M2836,576 L2860,576 M2848,564 L2848,588 " stroke="black"/>
<path d="M2912,320 L2912,576 " stroke="black"/>
<circle cx="2912" cy="320" r="12" stroke="none" fill="black"/>
<circle cx="2912" cy="576" r="12" stroke="black" fill="white"/>
<path d="M2900,576 L2924,576 M2912,564 L2912,588 " stroke="black"/>
<path d="M2976,384 L2976,576 " stroke="black"/>
<circle cx="2976" cy="384" r="12" stroke="none" fill="black"/>
<circle cx="2976" cy="576" r="12" stroke="black" fill="white"/>
<path d="M2964,576 L2988,576 M2976,564 L2976,588 " stroke="black"/>
<path d="M3040,448 L3040,576 " stroke="black"/>
<circle cx="3040" cy="448" r="12" stroke="none" fill="black"/>
<circle cx="3040" cy="576" r="12" stroke="black" fill="white"/>
<path d="M3028,576 L3052,576 M3040,564 L3040,588 " stroke="black"/>
<path d="M3104,128 L3104,640 " stroke="black"/>
<circle cx="3104" cy="128" r="12" stroke="none" fill="black"/>
<circle cx="3104" cy="640" r="12" stroke="black" fill="white"/>
<path d="M3092,640 L3116,640 M3104,628 L3104,652 " stroke="black"/>
<path d="M3168,192 L3168,640 " stroke="black"/>
<circle cx="3168" cy="192" r="12" stroke="none" fill="black"/>
<circle cx="3168" cy="640" r="12" stroke="black" fill="white"/>
<path d="M3156,640 L3180,640 M3168,628 L3168,652 " stroke="black"/>
<path d="M3232,384 L3232,640 " stroke="black"/>
<circle cx="3232" cy="384" r="12" stroke="none" fill="black"/>
<circle cx="3232" cy="640" r="12" stroke="black" fill="white"/>
<path d="M3220,640 L3244,640 M3232,628 L3232,652 " stroke="black"/>
<path d="M3296,448 L3296,640 " stroke="black"/>
<circle cx="3296" cy="448" r="12" stroke="none" fill="black"/>
<circle cx="3296" cy="640" r="12" stroke="black" fill="white"/>
<path d="M3284,640 L3308,640 M3296,628 L3296,652 " stroke="black"/>
<path d="M3360,64 L3360,704 " stroke="black"/>
<circle cx="3360" cy="64" r="12" stroke="none" fill="black"/>
<circle cx="3360" cy="704" r="12" stroke="black" fill="white"/>
<path d="M3348,704 L3372,704 M3360,692 L3360,716 " stroke="black"/>
<path d="M3424,192 L3424,704 " stroke="black"/>
<circle cx="3424" cy="192" r="12" stroke="none" fill="black"/>
<circle cx="3424" cy="704" r="12" stroke="black" fill="white"/>
<path d="M3412,704 L3436,704 M3424,692 L3424,716 " stroke="black"/>
<path d="M3488,320 L3488,704 " stroke="black"/>
<circle cx="3488" cy="320" r="12" stroke="none" fill="black"/>
<circle cx="3488" cy="704" r="12" stroke="black" fill="white"/>
<path d="M3476,704 L3500,704 M3488,692 L3488,716 " stroke="black"/>
<path d="M3552,448 L3552,704 " stroke="black"/>
<circle cx="3552" cy="448" r="12" stroke="none" fill="black"/>
<circle cx="3552" cy="704" r="12" stroke="black" fill="white"/>
<path d="M3540,704 L3564,704 M3552,692 L3552,716 " stroke="black"/>
<path d="M3616,256 L3616,768 " stroke="black"/>
<circle cx="3616" cy="768" r="12" stroke="none" fill="black"/>
<circle cx="3616" cy="256" r="12" stroke="black" fill="white"/>
<path d="M3604,256 L3628,256 M3616,244 L3616,268 " stroke="black"/>
<path d="M3680,320 L3680,768 " stroke="black"/>
<circle cx="3680" cy="768" r="12" stroke="none" fill="black"/>
<circle cx="3680" cy="320" r="12" stroke="black" fill="white"/>
<path d="M3668,320 L3692,320 M3680,308 L3680,332 " stroke="black"/>
<path d="M3744,384 L3744,768 " stroke="black"/>
<circle cx="3744" cy="768" r="12" stroke="none" fill="black"/>
<circle cx="3744" cy="384" r="12" stroke="black" fill="white"/>
<path d="M3732,384 L3756,384 M3744,372 L3744,396 " stroke="black"/>
<path d="M3808,448 L3808,768 " stroke="black"/>
<circle cx="3808" cy="768" r="12" stroke="none" fill="black"/>
<circle cx="3808" cy="448" r="12" stroke="black" fill="white"/>
<path d="M3796,448 L3820,448 M3808,436 L3808,460 " stroke="black"/>
<path d="M3872,128 L3872,832 " stroke="black"/>
<circle cx="3872" cy="832" r="12" stroke="none" fill="black"/>
<circle cx="3872" cy="128" r="12" stroke="black" fill="white"/>
<path d="M3860,128 L3884,128 M3872,116 L3872,140 " stroke="black"/>
<path d="M3936,192 L3936,832 " stroke="black"/>
<circle cx="3936" cy="832" r="12" stroke="none" fill="black"/>
<circle cx="3936" cy="192" r="12" stroke="black" fill="white"/>
<path d="M3924,192 L3948,192 M3936,180 L3936,204 " stroke="black"/>
<path d="M4000,384 L4000,832 " stroke="black"/>
<circle cx="4000" cy="832" r="12" stroke="none" fill="black"/>
<circle cx="4000" cy="384" r="12" stroke="black" fill="white"/>
<path d="M3988,384 L4012,384 M4000,372 L4000,396 " stroke="black"/>
<path d="M4064,448 L4064,832 " stroke="black"/>
<circle cx="4064" cy="832" r="12" stroke="none" fill="black"/>
<circle cx="4064" cy="448" r="12" stroke="black" fill="white"/>
<path d="M4052,448 L4076,448 M4064,436 L4064,460 " stroke="black"/>
<path d="M4128,64 L4128,896 " stroke="black"/>
<circle cx="4128" cy="896" r="12" stroke="none" fill="black"/>
<circle cx="4128" cy="64" r="12" stroke="black" fill="white"/>
<path d="M4116,64 L4140,64 M4128,52 L4128,76 " stroke="black"/>
<path d="M4192,192 L4192,896 " stroke="black"/>
<circle cx="4192" cy="896" r="12" stroke="none" fill="black"/>
<circle cx="4192" cy="192" r="12" stroke="black" fill="white"/>
<path d="M4180,192 L4204,192 M4192,180 L4192,204 " stroke="black"/>
<path d="M4256,320 L4256,896 " stroke="black"/>
<circle cx="4256" cy="896" r="12" stroke="none" fill="black"/>
<circle cx="4256" cy="320" r="12" stroke="black" fill="white"/>
<path d="M4244,320 L4268,320 M4256,308 L4256,332 " stroke="black"/>
<path d="M4320,448 L4320,896 " stroke="black"/>
<circle cx="4320" cy="896" r="12" stroke="none" fill="black"/>
<circle cx="4320" cy="448" r="12" stroke="black" fill="white"/>
<path d="M4308,448 L4332,448 M4320,436 L4320,460 " stroke="black"/>
<rect x="4368" y="752" width="32" height="32" stroke="black" fill="white"/>
<text dominant-baseline="central" text-anchor="middle" font-family="monospace" font-size="30" x="4384" y="768">H</text>
<rect x="4368" y="816" width="32" height="32" stroke="black" fill="white"/>
<text dominant-baseline="central" text-anchor="middle" font-family="monospace" font-size="30" x="4384" y="832">H</text>
<rect x="4368" y="880" width="32" height="32" stroke="black" fill="white"/>
<text dominant-baseline="central" text-anchor="middle" font-family="monospace" font-size="30" x="4384" y="896">H</text>
<rect x="4368" y="560" width="32" height="32" stroke="black" fill="black"/>
<text dominant-baseline="central" text-anchor="middle" font-family="monospace" font-size="30" x="4384" y="576" fill="white">M</text>
<text text-anchor="middle" font-family="monospace" font-size="8" x="4384" y="556">rec[7]</text>
<rect x="4368" y="624" width="32" height="32" stroke="black" fill="black"/>
<text dominant-baseline="central" text-anchor="middle" font-family="monospace" font-size="30" x="4384" y="640" fill="white">M</text>
<text text-anchor="middle" font-family="monospace" font-size="8" x="4384" y="620">rec[8]</text>
<rect x="4368" y="688" width="32" height="32" stroke="black" fill="black"/>
<text dominant-baseline="central" text-anchor="middle" font-family="monospace" font-size="30" x="4384" y="704" fill="white">M</text>
<text text-anchor="middle" font-family="monospace" font-size="8" x="4384" y="684">rec[9]</text>
<rect x="4432" y="752" width="32" height="32" stroke="black" fill="black"/>
<text dominant-baseline="central" text-anchor="middle" font-family="monospace" font-size="30" x="4448" y="768" fill="white">M</text>
<text text-anchor="middle" font-family="monospace" font-size="8" x="4448" y="748">rec[10]</text>
<rect x="4432" y="816" width="32" height="32" stroke="black" fill="black"/>
<text dominant-baseline="central" text-anchor="middle" font-family="monospace" font-size="30" x="4448" y="832" fill="white">M</text>
<text text-anchor="middle" font-family="monospace" font-size="8" x="4448" y="812">rec[11]</text>
<rect x="4432" y="880" width="32" height="32" stroke="black" fill="black"/>
<text dominant-baseline="central" text-anchor="middle" font-family="monospace" font-size="30" x="4448" y="896" fill="white">M</text>
<text text-anchor="middle" font-family="monospace" font-size="8" x="4448" y="876">rec[12]</text>
<rect x="4432" y="560" width="224" height="32" stroke="black" fill="lightgray"/>
<text dominant-baseline="central" text-anchor="middle" font-family="monospace" font-size="16" x="4544" y="576">DETECTOR</text>
<text text-anchor="middle" font-family="monospace" font-size="8" x="4544" y="556">D1 = rec[7]*rec[1]</text>
<rect x="4432" y="624" width="224" height="32" stroke="black" fill="lightgray"/>
<text dominant-baseline="central" text-anchor="middle" font-family="monospace" font-size="16" x="4544" y="640">DETECTOR</text>
<text text-anchor="middle" font-family="monospace" font-size="8" x="4544" y="620">D2 = rec[8]*rec[2]</text>
<rect x="4432" y="688" width="224" height="32" stroke="black" fill="lightgray"/>
<text dominant-baseline="central" text-anchor="middle" font-family="monospace" font-size="16" x="4544" y="704">DETECTOR</text>
<text text-anchor="middle" font-family="monospace" font-size="8" x="4544" y="684">D3 = rec[9]*rec[3]</text>
<rect x="4688" y="752" width="224" height="32" stroke="black" fill="lightgray"/>
<text dominant-baseline="central" text-anchor="middle" font-family="monospace" font-size="16" x="4800" y="768">DETECTOR</text>
<text text-anchor="middle" font-family="monospace" font-size="8" x="4800" y="748">D4 = rec[10]*rec[4]</text>
<rect x="4688" y="816" width="224" height="32" stroke="black" fill="lightgray"/>
<text dominant-baseline="central" text-anchor="middle" font-family="monospace" font-size="16" x="4800" y="832">DETECTOR</text>
<text text-anchor="middle" font-family="monospace" font-size="8" x="4800" y="812">D5 = rec[11]*rec[5]</text>
<rect x="4688" y="880" width="224" height="32" stroke="black" fill="lightgray"/>
<text dominant-baseline="central" text-anchor="middle" font-family="monospace" font-size="16" x="4800" y="896">DETECTOR</text>
<text text-anchor="middle" font-family="monospace" font-size="8" x="4800" y="876">D6 = rec[12]*rec[6]</text>
<path d="M2756,40 L2756,32 L4924,32 L4924,40 " stroke="black" fill="none"/>
<path d="M2756,952 L2756,960 L4924,960 L4924,952 " stroke="black" fill="none"/>
<rect x="4944" y="560" width="32" height="32" stroke="black" fill="black"/>
<text dominant-baseline="central" text-anchor="middle" font-family="monospace" font-size="30" x="4960" y="576" fill="white">R</text>
<rect x="4944" y="624" width="32" height="32" stroke="black" fill="black"/>
<text dominant-baseline="central" text-anchor="middle" font-family="monospace" font-size="30" x="4960" y="640" fill="white">R</text>
<rect x="4944" y="688" width="32" height="32" stroke="black" fill="black"/>
<text dominant-baseline="central" text-anchor="middle" font-family="monospace" font-size="30" x="4960" y="704" fill="white">R</text>
<rect x="4944" y="752" width="32" height="32" stroke="black" fill="black"/>
<text dominant-baseline="central" text-anchor="middle" font-family="monospace" font-size="30" x="4960" y="768" fill="white">R</text>
<rect x="4944" y="816" width="32" height="32" stroke="black" fill="black"/>
<text dominant-baseline="central" text-anchor="middle" font-family="monospace" font-size="30" x="4960" y="832" fill="white">R</text>
<rect x="4944" y="880" width="32" height="32" stroke="black" fill="black"/>
<text dominant-baseline="central" text-anchor="middle" font-family="monospace" font-size="30" x="4960" y="896" fill="white">R</text>
<rect x="5008" y="752" width="32" height="32" stroke="black" fill="white"/>
<text dominant-baseline="central" text-anchor="middle" font-family="monospace" font-size="30" x="5024" y="768">H</text>
<rect x="5008" y="816" width="32" height="32" stroke="black" fill="white"/>
<text dominant-baseline="central" text-anchor="middle" font-family="monospace" font-size="30" x="5024" y="832">H</text>
<rect x="5008" y="880" width="32" height="32" stroke="black" fill="white"/>
<text dominant-baseline="central" text-anchor="middle" font-family="monospace" font-size="30" x="5024" y="896">H</text>
<path d="M5024,256 L5024,576 " stroke="black"/>
<circle cx="5024" cy="256" r="12" stroke="none" fill="black"/>
<circle cx="5024" cy="576" r="12" stroke="black" fill="white"/>
<path d="M5012,576 L5036,576 M5024,564 L5024,588 " stroke="black"/>
<path d="M5088,320 L5088,576 " stroke="black"/>
<circle cx="5088" cy="320" r="12" stroke="none" fill="black"/>
<circle cx="5088" cy="576" r="12" stroke="black" fill="white"/>
<path d="M5076,576 L5100,576 M5088,564 L5088,588 " stroke="black"/>
<path d="M5152,384 L5152,576 " stroke="black"/>
<circle cx="5152" cy="384" r="12" stroke="none" fill="black"/>
<circle cx="5152" cy="576" r="12" stroke="black" fill="white"/>
<path d="M5140,576 L5164,576 M5152,564 L5152,588 " stroke="black"/>
<path d="M5216,448 L5216,576 " stroke="black"/>
<circle cx="5216" cy="448" r="12" stroke="none" fill="black"/>
<circle cx="5216" cy="576" r="12" stroke="black" fill="white"/>
<path d="M5204,576 L5228,576 M5216,564 L5216,588 " stroke="black"/>
<path d="M5280,128 L5280,640 " stroke="black"/>
<circle cx="5280" cy="128" r="12" stroke="none" fill="black"/>
<circle cx="5280" cy="640" r="12" stroke="black" fill="white"/>
<path d="M5268,640 L5292,640 M5280,628 L5280,652 " stroke="black"/>
<path d="M5344,192 L5344,640 " stroke="black"/>
<circle cx="5344" cy="192" r="12" stroke="none" fill="black"/>
<circle cx="5344" cy="640" r="12" stroke="black" fill="white"/>
<path d="M5332,640 L5356,640 M5344,628 L5344,652 " stroke="black"/>
<path d="M5408,384 L5408,640 " stroke="black"/>
<circle cx="5408" cy="384" r="12" stroke="none" fill="black"/>
<circle cx="5408" cy="640" r="12" stroke="black" fill="white"/>
<path d="M5396,640 L5420,640 M5408,628 L5408,652 " stroke="black"/>
<path d="M5472,448 L5472,640 " stroke="black"/>
<circle cx="5472" cy="448" r="12" stroke="none" fill="black"/>
<circle cx="5472" cy="640" r="12" stroke="black" fill="white"/>
<path d="M5460,640 L5484,640 M5472,628 L5472,652 " stroke="black"/>
<path d="M5536,64 L5536,704 " stroke="black"/>
<circle cx="5536" cy="64" r="12" stroke="none" fill="black"/>
<circle cx="5536" cy="704" r="12" stroke="black" fill="white"/>
<path d="M5524,704 L5548,704 M5536,692 L5536,716 " stroke="black"/>
<path d="M5600,192 L5600,704 " stroke="black"/>
<circle cx="5600" cy="192" r="12" stroke="none" fill="black"/>
<circle cx="5600" cy="704" r="12" stroke="black" fill="white"/>
<path d="M5588,704 L5612,704 M5600,692 L5600,716 " stroke="black"/>
<path d="M5664,320 L5664,704 " stroke="black"/>
<circle cx="5664" cy="320" r="12" stroke="none" fill="black"/>
<circle cx="5664" cy="704" r="12" stroke="black" fill="white"/>
<path d="M5652,704 L5676,704 M5664,692 L5664,716 " stroke="black"/>
<path d="M5728,448 L5728,704 " stroke="black"/>
<circle cx="5728" cy="448" r="12" stroke="none" fill="black"/>
<circle cx="5728" cy="704" r="12" stroke="black" fill="white"/>
<path d="M5716,704 L5740,704 M5728,692 L5728,716 " stroke="black"/>
<path d="M5792,256 L5792,768 " stroke="black"/>
<circle cx="5792" cy="768" r="12" stroke="none" fill="black"/>
<circle cx="5792" cy="256" r="12" stroke="black" fill="white"/>
<path d="M5780,256 L5804,256 M5792,244 L5792,268 " stroke="black"/>
<path d="M5856,320 L5856,768 " stroke="black"/>
<circle cx="5856" cy="768" r="12" stroke="none" fill="black"/>
<circle cx="5856" cy="320" r="12" stroke="black" fill="white"/>
<path d="M5844,320 L5868,320 M5856,308 L5856,332 " stroke="black"/>
<path d="M5920,384 L5920,768 " stroke="black"/>
<circle cx="5920" cy="768" r="12" stroke="none" fill="black"/>
<circle cx="5920" cy="384" r="12" stroke="black" fill="white"/>
<path d="M5908,384 L5932,384 M5920,372 L5920,396 " stroke="black"/>
<path d="M5984,448 L5984,768 " stroke="black"/>
<circle cx="5984" cy="768" r="12" stroke="none" fill="black"/>
<circle cx="5984" cy="448" r="12" stroke="black" fill="white"/>
<path d="M5972,448 L5996,448 M5984,436 L5984,460 " stroke="black"/>
<path d="M6048,128 L6048,832 " stroke="black"/>
<circle cx="6048" cy="832" r="12" stroke="none" fill="black"/>
<circle cx="6048" cy="128" r="12" stroke="black" fill="white"/>
<path d="M6036,128 L6060,128 M6048,116 L6048,140 " stroke="black"/>
<path d="M6112,192 L6112,832 " stroke="black"/>
<circle cx="6112" cy="832" r="12" stroke="none" fill="black"/>
<circle cx="6112" cy="192" r="12" stroke="black" fill="white"/>
<path d="M6100,192 L6124,192 M6112,180 L6112,204 " stroke="black"/>
<path d="M6176,384 L6176,832 " stroke="black"/>
<circle cx="6176" cy="832" r="12" stroke="none" fill="black"/>
<circle cx="6176" cy="384" r="12" stroke="black" fill="white"/>
<path d="M6164,384 L6188,384 M6176,372 L6176,396 " stroke="black"/>
<path d="M6240,448 L6240,832 " stroke="black"/>
<circle cx="6240" cy="832" r="12" stroke="none" fill="black"/>
<circle cx="6240" cy="448" r="12" stroke="black" fill="white"/>
<path d="M6228,448 L6252,448 M6240,436 L6240,460 " stroke="black"/>
<path d="M6304,64 L6304,896 " stroke="black"/>
<circle cx="6304" cy="896" r="12" stroke="none" fill="black"/>
<circle cx="6304" cy="64" r="12" stroke="black" fill="white"/>
<path d="M6292,64 L6316,64 M6304,52 L6304,76 " stroke="black"/>
<path d="M6368,192 L6368,896 " stroke="black"/>
<circle cx="6368" cy="896" r="12" stroke="none" fill="black"/>
<circle cx="6368" cy="192" r="12" stroke="black" fill="white"/>
<path d="M6356,192 L6380,192 M6368,180 L6368,204 " stroke="black"/>
<path d="M6432,320 L6432,896 " stroke="black"/>
<circle cx="6432" cy="896" r="12" stroke="none" fill="black"/>
<circle cx="6432" cy="320" r="12" stroke="black" fill="white"/>
<path d="M6420,320 L6444,320 M6432,308 L6432,332 " stroke="black"/>
<path d="M6496,448 L6496,896 " stroke="black"/>
<circle cx="6496" cy="896" r="12" stroke="none" fill="black"/>
<circle cx="6496" cy="448" r="12" stroke="black" fill="white"/>
<path d="M6484,448 L6508,448 M6496,436 L6496,460 " stroke="black"/>
<rect x="6544" y="752" width="32" height="32" stroke="black" fill="white"/>
<text dominant-baseline="central" text-anchor="middle" font-family="monospace" font-size="30" x="6560" y="768">H</text>
<rect x="6544" y="816" width="32" height="32" stroke="black" fill="white"/>
<text dominant-baseline="central" text-anchor="middle" font-family="monospace" font-size="30" x="6560" y="832">H</text>
<rect x="6544" y="880" width="32" height="32" stroke="black" fill="white"/>
<text dominant-baseline="central" text-anchor="middle" font-family="monospace" font-size="30" x="6560" y="896">H</text>
<rect x="6544" y="560" width="32" height="32" stroke="black" fill="black"/>
<text dominant-baseline="central" text-anchor="middle" font-family="monospace" font-size="30" x="6560" y="576" fill="white">M</text>
<text text-anchor="middle" font-family="monospace" font-size="8" x="6560" y="556">rec[13]</text>
<rect x="6544" y="624" width="32" height="32" stroke="black" fill="black"/>
<text dominant-baseline="central" text-anchor="middle" font-family="monospace" font-size="30" x="6560" y="640" fill="white">M</text>
<text text-anchor="middle" font-family="monospace" font-size="8" x="6560" y="620">rec[14]</text>
<rect x="6544" y="688" width="32" height="32" stroke="black" fill="black"/>
<text dominant-baseline="central" text-anchor="middle" font-family="monospace" font-size="30" x="6560" y="704" fill="white">M</text>
<text text-anchor="middle" font-family="monospace" font-size="8" x="6560" y="684">rec[15]</text>
<rect x="6608" y="752" width="32" height="32" stroke="black" fill="black"/>
<text dominant-baseline="central" text-anchor="middle" font-family="monospace" font-size="30" x="6624" y="768" fill="white">M</text>
<text text-anchor="middle" font-family="monospace" font-size="8" x="6624" y="748">rec[16]</text>
<rect x="6608" y="816" width="32" height="32" stroke="black" fill="black"/>
<text dominant-baseline="central" text-anchor="middle" font-family="monospace" font-size="30" x="6624" y="832" fill="white">M</text>
<text text-anchor="middle" font-family="monospace" font-size="8" x="6624" y="812">rec[17]</text>
<rect x="6608" y="880" width="32" height="32" stroke="black" fill="black"/>
<text dominant-baseline="central" text-anchor="middle" font-family="monospace" font-size="30" x="6624" y="896" fill="white">M</text>
<text text-anchor="middle" font-family="monospace" font-size="8" x="6624" y="876">rec[18]</text>
<rect x="6608" y="560" width="224" height="32" stroke="black" fill="lightgray"/>
<text dominant-baseline="central" text-anchor="middle" font-family="monospace" font-size="16" x="6720" y="576">DETECTOR</text>
<text text-anchor="middle" font-family="monospace" font-size="8" x="6720" y="556">D7 = rec[13]*rec[7]</text>
<rect x="6608" y="624" width="224" height="32" stroke="black" fill="lightgray"/>
<text dominant-baseline="central" text-anchor="middle" font-family="monospace" font-size="16" x="6720" y="640">DETECTOR</text>
<text text-anchor="middle" font-family="monospace" font-size="8" x="6720" y="620">D8 = rec[14]*rec[8]</text>
<rect x="6608" y="688" width="224" height="32" stroke="black" fill="lightgray"/>
<text dominant-baseline="central" text-anchor="middle" font-family="monospace" font-size="16" x="6720" y="704">DETECTOR</text>
<text text-anchor="middle" font-family="monospace" font-size="8" x="6720" y="684">D9 = rec[15]*rec[9]</text>
<rect x="6864" y="752" width="224" height="32" stroke="black" fill="lightgray"/>
<text dominant-baseline="central" text-anchor="middle" font-family="monospace" font-size="16" x="6976" y="768">DETECTOR</text>
<text text-anchor="middle" font-family="monospace" font-size="8" x="6976" y="748">D10 = rec[16]*rec[10]</text>
<rect x="6864" y="816" width="224" height="32" stroke="black" fill="lightgray"/>
<text dominant-baseline="central" text-anchor="middle" font-family="monospace" font-size="16" x="6976" y="832">DETECTOR</text>
<text text-anchor="middle" font-family="monospace" font-size="8" x="6976" y="812">D11 = rec[17]*rec[11]</text>
<rect x="6864" y="880" width="224" height="32" stroke="black" fill="lightgray"/>
<text dominant-baseline="central" text-anchor="middle" font-family="monospace" font-size="16" x="6976" y="896">DETECTOR</text>
<text text-anchor="middle" font-family="monospace" font-size="8" x="6976" y="876">D12 = rec[18]*rec[12]</text>
<path d="M4932,40 L4932,32 L7100,32 L7100,40 " stroke="black" fill="none"/>
<path d="M4932,952 L4932,960 L7100,960 L7100,952 " stroke="black" fill="none"/>
<rect x="7120" y="48" width="32" height="32" stroke="black" fill="black"/>
<text dominant-baseline="central" text-anchor="middle" font-family="monospace" font-size="30" x="7136" y="64" fill="white">M</text>
<text text-anchor="middle" font-family="monospace" font-size="8" x="7136" y="44">rec[19]</text>
<rect x="7120" y="112" width="32" height="32" stroke="black" fill="black"/>
<text dominant-baseline="central" text-anchor="middle" font-family="monospace" font-size="30" x="7136" y="128" fill="white">M</text>
<text text-anchor="middle" font-family="monospace" font-size="8" x="7136" y="108">rec[20]</text>
<rect x="7120" y="176" width="32" height="32" stroke="black" fill="black"/>
<text dominant-baseline="central" text-anchor="middle" font-family="monospace" font-size="30" x="7136" y="192" fill="white">M</text>
<text text-anchor="middle" font-family="monospace" font-size="8" x="7136" y="172">rec[21]</text>
<rect x="7120" y="240" width="32" height="32" stroke="black" fill="black"/>
<text dominant-baseline="central" text-anchor="middle" font-family="monospace" font-size="30" x="7136" y="256" fill="white">M</text>
<text text-anchor="middle" font-family="monospace" font-size="8" x="7136" y="236">rec[22]</text>
<rect x="7120" y="304" width="32" height="32" stroke="black" fill="black"/>
<text dominant-baseline="central" text-anchor="middle" font-family="monospace" font-size="30" x="7136" y="320" fill="white">M</text>
<text text-anchor="middle" font-family="monospace" font-size="8" x="7136" y="300">rec[23]</text>
<rect x="7120" y="368" width="32" height="32" stroke="black" fill="black"/>
<text dominant-baseline="central" text-anchor="middle" font-family="monospace" font-size="30" x="7136" y="384" fill="white">M</text>
<text text-anchor="middle" font-family="monospace" font-size="8" x="7136" y="364">rec[24]</text>
<rect x="7120" y="432" width="32" height="32" stroke="black" fill="black"/>
<text dominant-baseline="central" text-anchor="middle" font-family="monospace" font-size="30" x="7136" y="448" fill="white">M</text>
<text text-anchor="middle" font-family="monospace" font-size="8" x="7136" y="428">rec[25]</text>
<rect x="7184" y="240" width="416" height="32" stroke="black" fill="lightgray"/>
<text dominant-baseline="central" text-anchor="middle" font-family="monospace" font-size="16" x="7392" y="256">DETECTOR</text>
<text text-anchor="middle" font-family="monospace" font-size="8" x="7392" y="236">D13 = rec[22]*rec[23]*rec[24]*rec[25]*rec[13]</text>
<rect x="7184" y="112" width="416" height="32" stroke="black" fill="lightgray"/>
<text dominant-baseline="central" text-anchor="middle" font-family="monospace" font-size="16" x="7392" y="128">DETECTOR</text>
<text text-anchor="middle" font-family="monospace" font-size="8" x="7392" y="108">D14 = rec[20]*rec[21]*rec[24]*rec[25]*rec[14]</text>
<rect x="7184" y="48" width="416" height="32" stroke="black" fill="lightgray"/>
<text dominant-baseline="central" text-anchor="middle" font-family="monospace" font-size="16" x="7392" y="64">DETECTOR</text>
<text text-anchor="middle" font-family="monospace" font-size="8" x="7392" y="44">D15 = rec[19]*rec[21]*rec[23]*rec[25]*rec[15]</text>
<rect x="7632" y="48" width="544" height="32" stroke="black" fill="lightgray"/>
<text dominant-baseline="central" text-anchor="middle" font-family="monospace" font-size="16" x="7904" y="64">OBS_INCLUDE(0)</text>
<text text-anchor="middle" font-family="monospace" font-size="8" x="7904" y="44">L0 *= rec[19]*rec[20]*rec[21]*rec[22]*rec[23]*rec[24]*rec[25]</text>
<path d="M7108,40 L7108,32 L8188,32 L8188,40 " stroke="black" fill="none"/>
<path d="M7108,952 L7108,960 L8188,960 L8188,952 " stroke="black" fill="none"/>
</svg>
