<svg viewBox="0 0 4832 928"  version="1.1" xmlns="http://www.w3.org/2000/svg">
<g id="qubit_lines">
<path id="qubit_line:0" d="M64,64 L4800,64 " stroke="black"/>
<text dominant-baseline="central" text-anchor="end" font-family="monospace" font-size="12" x="64" y="64">q0</text>
<path id="qubit_line:1" d="M64,128 L4800,128 " stroke="black"/>
<text dominant-baseline="central" text-anchor="end" font-family="monospace" font-size="12" x="64" y="128">q1</text>
<path id="qubit_line:2" d="M64,192 L4800,192 " stroke="black"/>
<text dominant-baseline="central" text-anchor="end" font-family="monospace" font-size="12" x="64" y="192">q2</text>
<path id="qubit_line:3" d="M64,256 L4800,256 " stroke="black"/>
<text dominant-baseline="central" text-anchor="end" font-family="monospace" font-size="12" x="64" y="256">q3</text>
<path id="qubit_line:4" d="M64,320 L4800,320 " stroke="black"/>
<text dominant-baseline="central" text-anchor="end" font-family="monospace" font-size="12" x="64" y="320">q4</text>
<path id="qubit_line:5" d="M64,384 L4800,384 " stroke="black"/>
<text dominant-baseline="central" text-anchor="end" font-family="monospace" font-size="12" x="64" y="384">q5</text>
<path id="qubit_line:6" d="M64,448 L4800,448 " stroke="black"/>
<text dominant-baseline="central" text-anchor="end" font-family="monospace" font-size="12" x="64" y="448">q6</text>
<path id="qubit_line:7" d="M64,512 L4800,512 " stroke="black"/>
<text dominant-baseline="central" text-anchor="end" font-family="monospace" font-size="12" x="64" y="512">q7</text>
<path id="qubit_line:8" d="M64,576 L4800,576 " stroke="black"/>
<text dominant-baseline="central" text-anchor="end" font-family="monospace" font-size="12" x="64" y="576">q8</text>
<path id="qubit_line:9" d="M64,640 L4800,640 " stroke="black"/>
<text dominant-baseline="central" text-anchor="end" font-family="monospace" font-size="12" x="64" y="640">q9</text>
<path id="qubit_line:10" d="M64,704 L4800,704 " stroke="black"/>
<text dominant-baseline="central" text-anchor="end" font-family="monospace" font-size="12" x="64" y="704">q10</text>
<path id="qubit_line:11" d="M64,768 L4800,768 " stroke="black"/>
<text dominant-baseline="central" text-anchor="end" font-family="monospace" font-size="12" x="64" y="768">q11</text>
<path id="qubit_line:12" d="M64,832 L4800,832 " stroke="black"/>
<text dominant-baseline="central" text-anchor="end" font-family="monospace" font-size="12" x="64" y="832">q12</text>
</g>
<rect x="80" y="48" width="32" height="32" stroke="black" fill="black"/>
<text dominant-baseline="central" text-anchor="middle" font-family="monospace" font-size="30" x="96" y="64" fill="white">R</text>
<rect x="80" y="112" width="32" height="32" stroke="black" fill="black"/>
<text dominant-baseline="central" text-anchor="middle" font-family="monospace" font-size="30" x="96" y="128" fill="white">R</text>
<rect x="80" y="176" width="32" height="32" stroke="black" fill="black"/>
<text dominant-baseline="central" text-anchor="middle" font-family="monospace" font-size="30" x="96" y="192" fill="white">R</text>
<rect x="80" y="240" width="32" height="32" stroke="black" fill="black"/>
<text dominant-baseline="central" text-anchor="middle" font-family="monospace" font-size="30" x="96" y="256" fill="white">R</text>
<rect x="80" y="304" width="32" height="32" stroke="black" fill="black"/>
<text dominant-baseline="central" text-anchor="middle" font-family="monospace" font-size="30" x="96" y="320" fill="white">R</text>
<rect x="80" y="368" width="32" height="32" stroke="black" fill="black"/>
<text dominant-baseline="central" text-anchor="middle" font-family="monospace" font-size="30" x="96" y="384" fill="white">R</text>
<rect x="80" y="432" width="32" height="32" stroke="black" fill="black"/>
<text dominant-baseline="central" text-anchor="middle" font-family="monospace" font-size="30" x="96" y="448" fill="white">R</text>
<rect x="80" y="496" width="32" height="32" stroke="black" fill="black"/>
<text dominant-baseline="central" text-anchor="middle" font-family="monospace" font-size="30" x="96" y="512" fill="white">R</text>
<rect x="80" y="560" width="32" height="32" stroke="black" fill="black"/>
<text dominant-baseline="central" text-anchor="middle" font-family="monospace" font-size="30" x="96" y="576" fill="white">R</text>
<rect x="80" y="624" width="32" height="32" stroke="black" fill="black"/>
<text dominant-baseline="central" text-anchor="middle" font-family="monospace" font-size="30" x="96" y="640" fill="white">R</text>
<rect x="80" y="688" width="32" height="32" stroke="black" fill="black"/>
<text dominant-baseline="central" text-anchor="middle" font-family="monospace" font-size="30" x="96" y="704" fill="white">R</text>
<rect x="80" y="752" width="32" height="32" stroke="black" fill="black"/>
<text dominant-baseline="central" text-anchor="middle" font-family="monospace" font-size="30" x="96" y="768" fill="white">R</text>
<rect x="80" y="816" width="32" height="32" stroke="black" fill="black"/>
<text dominant-baseline="central" text-anchor="middle" font-family="monospace" font-size="30" x="96" y="832" fill="white">R</text>
<rect x="144" y="48" width="32" height="32" stroke="black" fill="pink"/>
<text dominant-baseline="central" text-anchor="middle" font-family="monospace" font-size="12" x="160" y="64">ERR<tspan baseline-shift="sub" font-size="10">X</tspan></text>
<text dominant-baseline="hanging" text-anchor="middle" font-family="monospace" font-size="10" stroke="red" x="160" y="84">1.66e-06</text>
<rect x="144" y="112" width="32" height="32" stroke="black" fill="pink"/>
<text dominant-baseline="central" text-anchor="middle" font-family="monospace" font-size="12" x="160" y="128">ERR<tspan baseline-shift="sub" font-size="10">X</tspan></text>
<text dominant-baseline="hanging" text-anchor="middle" font-family="monospace" font-size="10" stroke="red" x="160" y="148">1.66e-06</text>
<rect x="144" y="176" width="32" height="32" stroke="black" fill="pink"/>
<text dominant-baseline="central" text-anchor="middle" font-family="monospace" font-size="12" x="160" y="192">ERR<tspan baseline-shift="sub" font-size="10">X</tspan></text>
<text dominant-baseline="hanging" text-anchor="middle" font-family="monospace" font-size="10" stroke="red" x="160" y="212">1.66e-06</text>
<rect x="144" y="240" width="32" height="32" stroke="black" fill="pink"/>
<text dominant-baseline="central" text-anchor="middle" font-family="monospace" font-size="12" x="160" y="256">ERR<tspan baseline-shift="sub" font-size="10">X</tspan></text>
<text dominant-baseline="hanging" text-anchor="middle" font-family="monospace" font-size="10" stroke="red" x="160" y="276">1.66e-06</text>
<rect x="144" y="304" width="32" height="32" stroke="black" fill="pink"/>
<text dominant-baseline="central" text-anchor="middle" font-family="monospace" font-size="12" x="160" y="320">ERR<tspan baseline-shift="sub" font-size="10">X</tspan></text>
<text dominant-baseline="hanging" text-anchor="middle" font-family="monospace" font-size="10" stroke="red" x="160" y="340">1.66e-06</text>
<rect x="144" y="368" width="32" height="32" stroke="black" fill="pink"/>
<text dominant-baseline="central" text-anchor="middle" font-family="monospace" font-size="12" x="160" y="384">ERR<tspan baseline-shift="sub" font-size="10">X</tspan></text>
<text dominant-baseline="hanging" text-anchor="middle" font-family="monospace" font-size="10" stroke="red" x="160" y="404">1.66e-06</text>
<rect x="144" y="432" width="32" height="32" stroke="black" fill="pink"/>
<text dominant-baseline="central" text-anchor="middle" font-family="monospace" font-size="12" x="160" y="448">ERR<tspan baseline-shift="sub" font-size="10">X</tspan></text>
<text dominant-baseline="hanging" text-anchor="middle" font-family="monospace" font-size="10" stroke="red" x="160" y="468">1.66e-06</text>
<rect x="144" y="496" width="32" height="32" stroke="black" fill="pink"/>
<text dominant-baseline="central" text-anchor="middle" font-family="monospace" font-size="12" x="160" y="512">ERR<tspan baseline-shift="sub" font-size="10">X</tspan></text>
<text dominant-baseline="hanging" text-anchor="middle" font-family="monospace" font-size="10" stroke="red" x="160" y="532">1.66e-06</text>
<rect x="144" y="560" width="32" height="32" stroke="black" fill="pink"/>
<text dominant-baseline="central" text-anchor="middle" font-family="monospace" font-size="12" x="160" y="576">ERR<tspan baseline-shift="sub" font-size="10">X</tspan></text>
<text dominant-baseline="hanging" text-anchor="middle" font-family="monospace" font-size="10" stroke="red" x="160" y="596">1.66e-06</text>
<rect x="144" y="624" width="32" height="32" stroke="black" fill="pink"/>
<text dominant-baseline="central" text-anchor="middle" font-family="monospace" font-size="12" x="160" y="640">ERR<tspan baseline-shift="sub" font-size="10">X</tspan></text>
<text dominant-baseline="hanging" text-anchor="middle" font-family="monospace" font-size="10" stroke="red" x="160" y="660">1.66e-06</text>
<rect x="144" y="688" width="32" height="32" stroke="black" fill="pink"/>
<text dominant-baseline="central" text-anchor="middle" font-family="monospace" font-size="12" x="160" y="704">ERR<tspan baseline-shift="sub" font-size="10">X</tspan></text>
<text dominant-baseline="hanging" text-anchor="middle" font-family="monospace" font-size="10" stroke="red" x="160" y="724">1.66e-06</text>
<rect x="144" y="752" width="32" height="32" stroke="black" fill="pink"/>
<text dominant-baseline="central" text-anchor="middle" font-family="monospace" font-size="12" x="160" y="768">ERR<tspan baseline-shift="sub" font-size="10">X</tspan></text>
<text dominant-baseline="hanging" text-anchor="middle" font-family="monospace" font-size="10" stroke="red" x="160" y="788">1.66e-06</text>
<rect x="144" y="816" width="32" height="32" stroke="black" fill="pink"/>
<text dominant-baseline="central" text-anchor="middle" font-family="monospace" font-size="12" x="160" y="832">ERR<tspan baseline-shift="sub" font-size="10">X</tspan></text>
<text dominant-baseline="hanging" text-anchor="middle" font-family="monospace" font-size="10" stroke="red" x="160" y="852">1.66e-06</text>
<rect x="208" y="688" width="32" height="32" stroke="black" fill="white"/>
<text dominant-baseline="central" text-anchor="middle" font-family="monospace" font-size="30" x="224" y="704">H</text>
<rect x="208" y="752" width="32" height="32" stroke="black" fill="white"/>
<text dominant-baseline="central" text-anchor="middle" font-family="monospace" font-size="30" x="224" y="768">H</text>
<rect x="208" y="816" width="32" height="32" stroke="black" fill="white"/>
<text dominant-baseline="central" text-anchor="middle" font-family="monospace" font-size="30" x="224" y="832">H</text>
<rect x="272" y="688" width="32" height="32" stroke="black" fill="pink"/>
<text dominant-baseline="central" text-anchor="middle" font-family="monospace" font-size="12" x="288" y="704">DEP<tspan baseline-shift="sub" font-size="10">1</tspan></text>
<text dominant-baseline="hanging" text-anchor="middle" font-family="monospace" font-size="10" stroke="red" x="288" y="724">7e-05</text>
<rect x="272" y="752" width="32" height="32" stroke="black" fill="pink"/>
<text dominant-baseline="central" text-anchor="middle" font-family="monospace" font-size="12" x="288" y="768">DEP<tspan baseline-shift="sub" font-size="10">1</tspan></text>
<text dominant-baseline="hanging" text-anchor="middle" font-family="monospace" font-size="10" stroke="red" x="288" y="788">7e-05</text>
<rect x="272" y="816" width="32" height="32" stroke="black" fill="pink"/>
<text dominant-baseline="central" text-anchor="middle" font-family="monospace" font-size="12" x="288" y="832">DEP<tspan baseline-shift="sub" font-size="10">1</tspan></text>
<text dominant-baseline="hanging" text-anchor="middle" font-family="monospace" font-size="10" stroke="red" x="288" y="852">7e-05</text>
<path d="M288,256 L288,512 " stroke="black"/>
<circle cx="288" cy="256" r="12" stroke="none" fill="black"/>
<circle cx="288" cy="512" r="12" stroke="black" fill="white"/>
<path d="M276,512 L300,512 M288,500 L288,524 " stroke="black"/>
<path d="M352,320 L352,512 " stroke="black"/>
<circle cx="352" cy="320" r="12" stroke="none" fill="black"/>
<circle cx="352" cy="512" r="12" stroke="black" fill="white"/>
<path d="M340,512 L364,512 M352,500 L352,524 " stroke="black"/>
<path d="M416,384 L416,512 " stroke="black"/>
<circle cx="416" cy="384" r="12" stroke="none" fill="black"/>
<circle cx="416" cy="512" r="12" stroke="black" fill="white"/>
<path d="M404,512 L428,512 M416,500 L416,524 " stroke="black"/>
<path d="M480,448 L480,512 " stroke="black"/>
<circle cx="480" cy="448" r="12" stroke="none" fill="black"/>
<circle cx="480" cy="512" r="12" stroke="black" fill="white"/>
<path d="M468,512 L492,512 M480,500 L480,524 " stroke="black"/>
<path d="M544,128 L544,576 " stroke="black"/>
<circle cx="544" cy="128" r="12" stroke="none" fill="black"/>
<circle cx="544" cy="576" r="12" stroke="black" fill="white"/>
<path d="M532,576 L556,576 M544,564 L544,588 " stroke="black"/>
<path d="M608,192 L608,576 " stroke="black"/>
<circle cx="608" cy="192" r="12" stroke="none" fill="black"/>
<circle cx="608" cy="576" r="12" stroke="black" fill="white"/>
<path d="M596,576 L620,576 M608,564 L608,588 " stroke="black"/>
<path d="M672,384 L672,576 " stroke="black"/>
<circle cx="672" cy="384" r="12" stroke="none" fill="black"/>
<circle cx="672" cy="576" r="12" stroke="black" fill="white"/>
<path d="M660,576 L684,576 M672,564 L672,588 " stroke="black"/>
<path d="M736,448 L736,576 " stroke="black"/>
<circle cx="736" cy="448" r="12" stroke="none" fill="black"/>
<circle cx="736" cy="576" r="12" stroke="black" fill="white"/>
<path d="M724,576 L748,576 M736,564 L736,588 " stroke="black"/>
<path d="M800,64 L800,640 " stroke="black"/>
<circle cx="800" cy="64" r="12" stroke="none" fill="black"/>
<circle cx="800" cy="640" r="12" stroke="black" fill="white"/>
<path d="M788,640 L812,640 M800,628 L800,652 " stroke="black"/>
<path d="M864,192 L864,640 " stroke="black"/>
<circle cx="864" cy="192" r="12" stroke="none" fill="black"/>
<circle cx="864" cy="640" r="12" stroke="black" fill="white"/>
<path d="M852,640 L876,640 M864,628 L864,652 " stroke="black"/>
<path d="M928,320 L928,640 " stroke="black"/>
<circle cx="928" cy="320" r="12" stroke="none" fill="black"/>
<circle cx="928" cy="640" r="12" stroke="black" fill="white"/>
<path d="M916,640 L940,640 M928,628 L928,652 " stroke="black"/>
<path d="M992,448 L992,640 " stroke="black"/>
<circle cx="992" cy="448" r="12" stroke="none" fill="black"/>
<circle cx="992" cy="640" r="12" stroke="black" fill="white"/>
<path d="M980,640 L1004,640 M992,628 L992,652 " stroke="black"/>
<path d="M1056,256 L1056,704 " stroke="black"/>
<circle cx="1056" cy="704" r="12" stroke="none" fill="black"/>
<circle cx="1056" cy="256" r="12" stroke="black" fill="white"/>
<path d="M1044,256 L1068,256 M1056,244 L1056,268 " stroke="black"/>
<path d="M1120,320 L1120,704 " stroke="black"/>
<circle cx="1120" cy="704" r="12" stroke="none" fill="black"/>
<circle cx="1120" cy="320" r="12" stroke="black" fill="white"/>
<path d="M1108,320 L1132,320 M1120,308 L1120,332 " stroke="black"/>
<path d="M1184,384 L1184,704 " stroke="black"/>
<circle cx="1184" cy="704" r="12" stroke="none" fill="black"/>
<circle cx="1184" cy="384" r="12" stroke="black" fill="white"/>
<path d="M1172,384 L1196,384 M1184,372 L1184,396 " stroke="black"/>
<path d="M1248,448 L1248,704 " stroke="black"/>
<circle cx="1248" cy="704" r="12" stroke="none" fill="black"/>
<circle cx="1248" cy="448" r="12" stroke="black" fill="white"/>
<path d="M1236,448 L1260,448 M1248,436 L1248,460 " stroke="black"/>
<path d="M1312,128 L1312,768 " stroke="black"/>
<circle cx="1312" cy="768" r="12" stroke="none" fill="black"/>
<circle cx="1312" cy="128" r="12" stroke="black" fill="white"/>
<path d="M1300,128 L1324,128 M1312,116 L1312,140 " stroke="black"/>
<path d="M1376,192 L1376,768 " stroke="black"/>
<circle cx="1376" cy="768" r="12" stroke="none" fill="black"/>
<circle cx="1376" cy="192" r="12" stroke="black" fill="white"/>
<path d="M1364,192 L1388,192 M1376,180 L1376,204 " stroke="black"/>
<path d="M1440,384 L1440,768 " stroke="black"/>
<circle cx="1440" cy="768" r="12" stroke="none" fill="black"/>
<circle cx="1440" cy="384" r="12" stroke="black" fill="white"/>
<path d="M1428,384 L1452,384 M1440,372 L1440,396 " stroke="black"/>
<path d="M1504,448 L1504,768 " stroke="black"/>
<circle cx="1504" cy="768" r="12" stroke="none" fill="black"/>
<circle cx="1504" cy="448" r="12" stroke="black" fill="white"/>
<path d="M1492,448 L1516,448 M1504,436 L1504,460 " stroke="black"/>
<path d="M1568,64 L1568,832 " stroke="black"/>
<circle cx="1568" cy="832" r="12" stroke="none" fill="black"/>
<circle cx="1568" cy="64" r="12" stroke="black" fill="white"/>
<path d="M1556,64 L1580,64 M1568,52 L1568,76 " stroke="black"/>
<path d="M1632,192 L1632,832 " stroke="black"/>
<circle cx="1632" cy="832" r="12" stroke="none" fill="black"/>
<circle cx="1632" cy="192" r="12" stroke="black" fill="white"/>
<path d="M1620,192 L1644,192 M1632,180 L1632,204 " stroke="black"/>
<path d="M1696,320 L1696,832 " stroke="black"/>
<circle cx="1696" cy="832" r="12" stroke="none" fill="black"/>
<circle cx="1696" cy="320" r="12" stroke="black" fill="white"/>
<path d="M1684,320 L1708,320 M1696,308 L1696,332 " stroke="black"/>
<path d="M1760,448 L1760,832 " stroke="black"/>
<circle cx="1760" cy="832" r="12" stroke="none" fill="black"/>
<circle cx="1760" cy="448" r="12" stroke="black" fill="white"/>
<path d="M1748,448 L1772,448 M1760,436 L1760,460 " stroke="black"/>
<path d="M1824,256 L1824,512 " stroke="black"/>
<rect x="1808" y="240" width="32" height="32" stroke="black" fill="pink"/>
<text dominant-baseline="central" text-anchor="middle" font-family="monospace" font-size="12" x="1824" y="256">DEP<tspan baseline-shift="sub" font-size="10">2</tspan></text>
<rect x="1808" y="496" width="32" height="32" stroke="black" fill="pink"/>
<text dominant-baseline="central" text-anchor="middle" font-family="monospace" font-size="12" x="1824" y="512">DEP<tspan baseline-shift="sub" font-size="10">2</tspan></text>
<text dominant-baseline="hanging" text-anchor="middle" font-family="monospace" font-size="10" stroke="red" x="1824" y="532">0.0031</text>
<path d="M1888,320 L1888,512 " stroke="black"/>
<rect x="1872" y="304" width="32" height="32" stroke="black" fill="pink"/>
<text dominant-baseline="central" text-anchor="middle" font-family="monospace" font-size="12" x="1888" y="320">DEP<tspan baseline-shift="sub" font-size="10">2</tspan></text>
<rect x="1872" y="496" width="32" height="32" stroke="black" fill="pink"/>
<text dominant-baseline="central" text-anchor="middle" font-family="monospace" font-size="12" x="1888" y="512">DEP<tspan baseline-shift="sub" font-size="10">2</tspan></text>
<text dominant-baseline="hanging" text-anchor="middle" font-family="monospace" font-size="10" stroke="red" x="1888" y="532">0.0031</text>
<path d="M1952,384 L1952,512 " stroke="black"/>
<rect x="1936" y="368" width="32" height="32" stroke="black" fill="pink"/>
<text dominant-baseline="central" text-anchor="middle" font-family="monospace" font-size="12" x="1952" y="384">DEP<tspan baseline-shift="sub" font-size="10">2</tspan></text>
<rect x="1936" y="496" width="32" height="32" stroke="black" fill="pink"/>
<text dominant-baseline="central" text-anchor="middle" font-family="monospace" font-size="12" x="1952" y="512">DEP<tspan baseline-shift="sub" font-size="10">2</tspan></text>
<text dominant-baseline="hanging" text-anchor="middle" font-family="monospace" font-size="10" stroke="red" x="1952" y="532">0.0031</text>
<path d="M2016,448 L2016,512 " stroke="black"/>
<rect x="2000" y="432" width="32" height="32" stroke="black" fill="pink"/>
<text dominant-baseline="central" text-anchor="middle" font-family="monospace" font-size="12" x="2016" y="448">DEP<tspan baseline-shift="sub" font-size="10">2</tspan></text>
<rect x="2000" y="496" width="32" height="32" stroke="black" fill="pink"/>
<text dominant-baseline="central" text-anchor="middle" font-family="monospace" font-size="12" x="2016" y="512">DEP<tspan baseline-shift="sub" font-size="10">2</tspan></text>
<text dominant-baseline="hanging" text-anchor="middle" font-family="monospace" font-size="10" stroke="red" x="2016" y="532">0.0031</text>
<path d="M2080,128 L2080,576 " stroke="black"/>
<rect x="2064" y="112" width="32" height="32" stroke="black" fill="pink"/>
<text dominant-baseline="central" text-anchor="middle" font-family="monospace" font-size="12" x="2080" y="128">DEP<tspan baseline-shift="sub" font-size="10">2</tspan></text>
<rect x="2064" y="560" width="32" height="32" stroke="black" fill="pink"/>
<text dominant-baseline="central" text-anchor="middle" font-family="monospace" font-size="12" x="2080" y="576">DEP<tspan baseline-shift="sub" font-size="10">2</tspan></text>
<text dominant-baseline="hanging" text-anchor="middle" font-family="monospace" font-size="10" stroke="red" x="2080" y="596">0.0031</text>
<path d="M2144,192 L2144,576 " stroke="black"/>
<rect x="2128" y="176" width="32" height="32" stroke="black" fill="pink"/>
<text dominant-baseline="central" text-anchor="middle" font-family="monospace" font-size="12" x="2144" y="192">DEP<tspan baseline-shift="sub" font-size="10">2</tspan></text>
<rect x="2128" y="560" width="32" height="32" stroke="black" fill="pink"/>
<text dominant-baseline="central" text-anchor="middle" font-family="monospace" font-size="12" x="2144" y="576">DEP<tspan baseline-shift="sub" font-size="10">2</tspan></text>
<text dominant-baseline="hanging" text-anchor="middle" font-family="monospace" font-size="10" stroke="red" x="2144" y="596">0.0031</text>
<path d="M2208,384 L2208,576 " stroke="black"/>
<rect x="2192" y="368" width="32" height="32" stroke="black" fill="pink"/>
<text dominant-baseline="central" text-anchor="middle" font-family="monospace" font-size="12" x="2208" y="384">DEP<tspan baseline-shift="sub" font-size="10">2</tspan></text>
<rect x="2192" y="560" width="32" height="32" stroke="black" fill="pink"/>
<text dominant-baseline="central" text-anchor="middle" font-family="monospace" font-size="12" x="2208" y="576">DEP<tspan baseline-shift="sub" font-size="10">2</tspan></text>
<text dominant-baseline="hanging" text-anchor="middle" font-family="monospace" font-size="10" stroke="red" x="2208" y="596">0.0031</text>
<path d="M2272,448 L2272,576 " stroke="black"/>
<rect x="2256" y="432" width="32" height="32" stroke="black" fill="pink"/>
<text dominant-baseline="central" text-anchor="middle" font-family="monospace" font-size="12" x="2272" y="448">DEP<tspan baseline-shift="sub" font-size="10">2</tspan></text>
<rect x="2256" y="560" width="32" height="32" stroke="black" fill="pink"/>
<text dominant-baseline="central" text-anchor="middle" font-family="monospace" font-size="12" x="2272" y="576">DEP<tspan baseline-shift="sub" font-size="10">2</tspan></text>
<text dominant-baseline="hanging" text-anchor="middle" font-family="monospace" font-size="10" stroke="red" x="2272" y="596">0.0031</text>
<path d="M2336,64 L2336,640 " stroke="black"/>
<rect x="2320" y="48" width="32" height="32" stroke="black" fill="pink"/>
<text dominant-baseline="central" text-anchor="middle" font-family="monospace" font-size="12" x="2336" y="64">DEP<tspan baseline-shift="sub" font-size="10">2</tspan></text>
<rect x="2320" y="624" width="32" height="32" stroke="black" fill="pink"/>
<text dominant-baseline="central" text-anchor="middle" font-family="monospace" font-size="12" x="2336" y="640">DEP<tspan baseline-shift="sub" font-size="10">2</tspan></text>
<text dominant-baseline="hanging" text-anchor="middle" font-family="monospace" font-size="10" stroke="red" x="2336" y="660">0.0031</text>
<path d="M2400,192 L2400,640 " stroke="black"/>
<rect x="2384" y="176" width="32" height="32" stroke="black" fill="pink"/>
<text dominant-baseline="central" text-anchor="middle" font-family="monospace" font-size="12" x="2400" y="192">DEP<tspan baseline-shift="sub" font-size="10">2</tspan></text>
<rect x="2384" y="624" width="32" height="32" stroke="black" fill="pink"/>
<text dominant-baseline="central" text-anchor="middle" font-family="monospace" font-size="12" x="2400" y="640">DEP<tspan baseline-shift="sub" font-size="10">2</tspan></text>
<text dominant-baseline="hanging" text-anchor="middle" font-family="monospace" font-size="10" stroke="red" x="2400" y="660">0.0031</text>
<path d="M2464,320 L2464,640 " stroke="black"/>
<rect x="2448" y="304" width="32" height="32" stroke="black" fill="pink"/>
<text dominant-baseline="central" text-anchor="middle" font-family="monospace" font-size="12" x="2464" y="320">DEP<tspan baseline-shift="sub" font-size="10">2</tspan></text>
<rect x="2448" y="624" width="32" height="32" stroke="black" fill="pink"/>
<text dominant-baseline="central" text-anchor="middle" font-family="monospace" font-size="12" x="2464" y="640">DEP<tspan baseline-shift="sub" font-size="10">2</tspan></text>
<text dominant-baseline="hanging" text-anchor="middle" font-family="monospace" font-size="10" stroke="red" x="2464" y="660">0.0031</text>
<path d="M2528,448 L2528,640 " stroke="black"/>
<rect x="2512" y="432" width="32" height="32" stroke="black" fill="pink"/>
<text dominant-baseline="central" text-anchor="middle" font-family="monospace" font-size="12" x="2528" y="448">DEP<tspan baseline-shift="sub" font-size="10">2</tspan></text>
<rect x="2512" y="624" width="32" height="32" stroke="black" fill="pink"/>
<text dominant-baseline="central" text-anchor="middle" font-family="monospace" font-size="12" x="2528" y="640">DEP<tspan baseline-shift="sub" font-size="10">2</tspan></text>
<text dominant-baseline="hanging" text-anchor="middle" font-family="monospace" font-size="10" stroke="red" x="2528" y="660">0.0031</text>
<path d="M2592,256 L2592,704 " stroke="black"/>
<rect x="2576" y="688" width="32" height="32" stroke="black" fill="pink"/>
<text dominant-baseline="central" text-anchor="middle" font-family="monospace" font-size="12" x="2592" y="704">DEP<tspan baseline-shift="sub" font-size="10">2</tspan></text>
<text dominant-baseline="hanging" text-anchor="middle" font-family="monospace" font-size="10" stroke="red" x="2592" y="724">0.0031</text>
<rect x="2576" y="240" width="32" height="32" stroke="black" fill="pink"/>
<text dominant-baseline="central" text-anchor="middle" font-family="monospace" font-size="12" x="2592" y="256">DEP<tspan baseline-shift="sub" font-size="10">2</tspan></text>
<path d="M2656,320 L2656,704 " stroke="black"/>
<rect x="2640" y="688" width="32" height="32" stroke="black" fill="pink"/>
<text dominant-baseline="central" text-anchor="middle" font-family="monospace" font-size="12" x="2656" y="704">DEP<tspan baseline-shift="sub" font-size="10">2</tspan></text>
<text dominant-baseline="hanging" text-anchor="middle" font-family="monospace" font-size="10" stroke="red" x="2656" y="724">0.0031</text>
<rect x="2640" y="304" width="32" height="32" stroke="black" fill="pink"/>
<text dominant-baseline="central" text-anchor="middle" font-family="monospace" font-size="12" x="2656" y="320">DEP<tspan baseline-shift="sub" font-size="10">2</tspan></text>
<path d="M2720,384 L2720,704 " stroke="black"/>
<rect x="2704" y="688" width="32" height="32" stroke="black" fill="pink"/>
<text dominant-baseline="central" text-anchor="middle" font-family="monospace" font-size="12" x="2720" y="704">DEP<tspan baseline-shift="sub" font-size="10">2</tspan></text>
<text dominant-baseline="hanging" text-anchor="middle" font-family="monospace" font-size="10" stroke="red" x="2720" y="724">0.0031</text>
<rect x="2704" y="368" width="32" height="32" stroke="black" fill="pink"/>
<text dominant-baseline="central" text-anchor="middle" font-family="monospace" font-size="12" x="2720" y="384">DEP<tspan baseline-shift="sub" font-size="10">2</tspan></text>
<path d="M2784,448 L2784,704 " stroke="black"/>
<rect x="2768" y="688" width="32" height="32" stroke="black" fill="pink"/>
<text dominant-baseline="central" text-anchor="middle" font-family="monospace" font-size="12" x="2784" y="704">DEP<tspan baseline-shift="sub" font-size="10">2</tspan></text>
<text dominant-baseline="hanging" text-anchor="middle" font-family="monospace" font-size="10" stroke="red" x="2784" y="724">0.0031</text>
<rect x="2768" y="432" width="32" height="32" stroke="black" fill="pink"/>
<text dominant-baseline="central" text-anchor="middle" font-family="monospace" font-size="12" x="2784" y="448">DEP<tspan baseline-shift="sub" font-size="10">2</tspan></text>
<path d="M2848,128 L2848,768 " stroke="black"/>
<rect x="2832" y="752" width="32" height="32" stroke="black" fill="pink"/>
<text dominant-baseline="central" text-anchor="middle" font-family="monospace" font-size="12" x="2848" y="768">DEP<tspan baseline-shift="sub" font-size="10">2</tspan></text>
<text dominant-baseline="hanging" text-anchor="middle" font-family="monospace" font-size="10" stroke="red" x="2848" y="788">0.0031</text>
<rect x="2832" y="112" width="32" height="32" stroke="black" fill="pink"/>
<text dominant-baseline="central" text-anchor="middle" font-family="monospace" font-size="12" x="2848" y="128">DEP<tspan baseline-shift="sub" font-size="10">2</tspan></text>
<path d="M2912,192 L2912,768 " stroke="black"/>
<rect x="2896" y="752" width="32" height="32" stroke="black" fill="pink"/>
<text dominant-baseline="central" text-anchor="middle" font-family="monospace" font-size="12" x="2912" y="768">DEP<tspan baseline-shift="sub" font-size="10">2</tspan></text>
<text dominant-baseline="hanging" text-anchor="middle" font-family="monospace" font-size="10" stroke="red" x="2912" y="788">0.0031</text>
<rect x="2896" y="176" width="32" height="32" stroke="black" fill="pink"/>
<text dominant-baseline="central" text-anchor="middle" font-family="monospace" font-size="12" x="2912" y="192">DEP<tspan baseline-shift="sub" font-size="10">2</tspan></text>
<path d="M2976,384 L2976,768 " stroke="black"/>
<rect x="2960" y="752" width="32" height="32" stroke="black" fill="pink"/>
<text dominant-baseline="central" text-anchor="middle" font-family="monospace" font-size="12" x="2976" y="768">DEP<tspan baseline-shift="sub" font-size="10">2</tspan></text>
<text dominant-baseline="hanging" text-anchor="middle" font-family="monospace" font-size="10" stroke="red" x="2976" y="788">0.0031</text>
<rect x="2960" y="368" width="32" height="32" stroke="black" fill="pink"/>
<text dominant-baseline="central" text-anchor="middle" font-family="monospace" font-size="12" x="2976" y="384">DEP<tspan baseline-shift="sub" font-size="10">2</tspan></text>
<path d="M3040,448 L3040,768 " stroke="black"/>
<rect x="3024" y="752" width="32" height="32" stroke="black" fill="pink"/>
<text dominant-baseline="central" text-anchor="middle" font-family="monospace" font-size="12" x="3040" y="768">DEP<tspan baseline-shift="sub" font-size="10">2</tspan></text>
<text dominant-baseline="hanging" text-anchor="middle" font-family="monospace" font-size="10" stroke="red" x="3040" y="788">0.0031</text>
<rect x="3024" y="432" width="32" height="32" stroke="black" fill="pink"/>
<text dominant-baseline="central" text-anchor="middle" font-family="monospace" font-size="12" x="3040" y="448">DEP<tspan baseline-shift="sub" font-size="10">2</tspan></text>
<path d="M3104,64 L3104,832 " stroke="black"/>
<rect x="3088" y="816" width="32" height="32" stroke="black" fill="pink"/>
<text dominant-baseline="central" text-anchor="middle" font-family="monospace" font-size="12" x="3104" y="832">DEP<tspan baseline-shift="sub" font-size="10">2</tspan></text>
<text dominant-baseline="hanging" text-anchor="middle" font-family="monospace" font-size="10" stroke="red" x="3104" y="852">0.0031</text>
<rect x="3088" y="48" width="32" height="32" stroke="black" fill="pink"/>
<text dominant-baseline="central" text-anchor="middle" font-family="monospace" font-size="12" x="3104" y="64">DEP<tspan baseline-shift="sub" font-size="10">2</tspan></text>
<path d="M3168,192 L3168,832 " stroke="black"/>
<rect x="3152" y="816" width="32" height="32" stroke="black" fill="pink"/>
<text dominant-baseline="central" text-anchor="middle" font-family="monospace" font-size="12" x="3168" y="832">DEP<tspan baseline-shift="sub" font-size="10">2</tspan></text>
<text dominant-baseline="hanging" text-anchor="middle" font-family="monospace" font-size="10" stroke="red" x="3168" y="852">0.0031</text>
<rect x="3152" y="176" width="32" height="32" stroke="black" fill="pink"/>
<text dominant-baseline="central" text-anchor="middle" font-family="monospace" font-size="12" x="3168" y="192">DEP<tspan baseline-shift="sub" font-size="10">2</tspan></text>
<path d="M3232,320 L3232,832 " stroke="black"/>
<rect x="3216" y="816" width="32" height="32" stroke="black" fill="pink"/>
<text dominant-baseline="central" text-anchor="middle" font-family="monospace" font-size="12" x="3232" y="832">DEP<tspan baseline-shift="sub" font-size="10">2</tspan></text>
<text dominant-baseline="hanging" text-anchor="middle" font-family="monospace" font-size="10" stroke="red" x="3232" y="852">0.0031</text>
<rect x="3216" y="304" width="32" height="32" stroke="black" fill="pink"/>
<text dominant-baseline="central" text-anchor="middle" font-family="monospace" font-size="12" x="3232" y="320">DEP<tspan baseline-shift="sub" font-size="10">2</tspan></text>
<path d="M3296,448 L3296,832 " stroke="black"/>
<rect x="3280" y="816" width="32" height="32" stroke="black" fill="pink"/>
<text dominant-baseline="central" text-anchor="middle" font-family="monospace" font-size="12" x="3296" y="832">DEP<tspan baseline-shift="sub" font-size="10">2</tspan></text>
<text dominant-baseline="hanging" text-anchor="middle" font-family="monospace" font-size="10" stroke="red" x="3296" y="852">0.0031</text>
<rect x="3280" y="432" width="32" height="32" stroke="black" fill="pink"/>
<text dominant-baseline="central" text-anchor="middle" font-family="monospace" font-size="12" x="3296" y="448">DEP<tspan baseline-shift="sub" font-size="10">2</tspan></text>
<rect x="3344" y="688" width="32" height="32" stroke="black" fill="white"/>
<text dominant-baseline="central" text-anchor="middle" font-family="monospace" font-size="30" x="3360" y="704">H</text>
<rect x="3344" y="752" width="32" height="32" stroke="black" fill="white"/>
<text dominant-baseline="central" text-anchor="middle" font-family="monospace" font-size="30" x="3360" y="768">H</text>
<rect x="3344" y="816" width="32" height="32" stroke="black" fill="white"/>
<text dominant-baseline="central" text-anchor="middle" font-family="monospace" font-size="30" x="3360" y="832">H</text>
<rect x="3408" y="688" width="32" height="32" stroke="black" fill="pink"/>
<text dominant-baseline="central" text-anchor="middle" font-family="monospace" font-size="12" x="3424" y="704">DEP<tspan baseline-shift="sub" font-size="10">1</tspan></text>
<text dominant-baseline="hanging" text-anchor="middle" font-family="monospace" font-size="10" stroke="red" x="3424" y="724">7e-05</text>
<rect x="3408" y="752" width="32" height="32" stroke="black" fill="pink"/>
<text dominant-baseline="central" text-anchor="middle" font-family="monospace" font-size="12" x="3424" y="768">DEP<tspan baseline-shift="sub" font-size="10">1</tspan></text>
<text dominant-baseline="hanging" text-anchor="middle" font-family="monospace" font-size="10" stroke="red" x="3424" y="788">7e-05</text>
<rect x="3408" y="816" width="32" height="32" stroke="black" fill="pink"/>
<text dominant-baseline="central" text-anchor="middle" font-family="monospace" font-size="12" x="3424" y="832">DEP<tspan baseline-shift="sub" font-size="10">1</tspan></text>
<text dominant-baseline="hanging" text-anchor="middle" font-family="monospace" font-size="10" stroke="red" x="3424" y="852">7e-05</text>
<rect x="3408" y="496" width="32" height="32" stroke="black" fill="pink"/>
<text dominant-baseline="central" text-anchor="middle" font-family="monospace" font-size="12" x="3424" y="512">ERR<tspan baseline-shift="sub" font-size="10">X</tspan></text>
<text dominant-baseline="hanging" text-anchor="middle" font-family="monospace" font-size="10" stroke="red" x="3424" y="532">0.0024</text>
<rect x="3408" y="560" width="32" height="32" stroke="black" fill="pink"/>
<text dominant-baseline="central" text-anchor="middle" font-family="monospace" font-size="12" x="3424" y="576">ERR<tspan baseline-shift="sub" font-size="10">X</tspan></text>
<text dominant-baseline="hanging" text-anchor="middle" font-family="monospace" font-size="10" stroke="red" x="3424" y="596">0.0024</text>
<rect x="3408" y="624" width="32" height="32" stroke="black" fill="pink"/>
<text dominant-baseline="central" text-anchor="middle" font-family="monospace" font-size="12" x="3424" y="640">ERR<tspan baseline-shift="sub" font-size="10">X</tspan></text>
<text dominant-baseline="hanging" text-anchor="middle" font-family="monospace" font-size="10" stroke="red" x="3424" y="660">0.0024</text>
<rect x="3472" y="688" width="32" height="32" stroke="black" fill="pink"/>
<text dominant-baseline="central" text-anchor="middle" font-family="monospace" font-size="12" x="3488" y="704">ERR<tspan baseline-shift="sub" font-size="10">X</tspan></text>
<text dominant-baseline="hanging" text-anchor="middle" font-family="monospace" font-size="10" stroke="red" x="3488" y="724">0.0024</text>
<rect x="3472" y="752" width="32" height="32" stroke="black" fill="pink"/>
<text dominant-baseline="central" text-anchor="middle" font-family="monospace" font-size="12" x="3488" y="768">ERR<tspan baseline-shift="sub" font-size="10">X</tspan></text>
<text dominant-baseline="hanging" text-anchor="middle" font-family="monospace" font-size="10" stroke="red" x="3488" y="788">0.0024</text>
<rect x="3472" y="816" width="32" height="32" stroke="black" fill="pink"/>
<text dominant-baseline="central" text-anchor="middle" font-family="monospace" font-size="12" x="3488" y="832">ERR<tspan baseline-shift="sub" font-size="10">X</tspan></text>
<text dominant-baseline="hanging" text-anchor="middle" font-family="monospace" font-size="10" stroke="red" x="3488" y="852">0.0024</text>
<rect x="3472" y="496" width="32" height="32" stroke="black" fill="black"/>
<text dominant-baseline="central" text-anchor="middle" font-family="monospace" font-size="30" x="3488" y="512" fill="white">M</text>
<text text-anchor="middle" font-family="monospace" font-size="8" x="3488" y="492">rec[0]</text>
<rect x="3472" y="560" width="32" height="32" stroke="black" fill="black"/>
<text dominant-baseline="central" text-anchor="middle" font-family="monospace" font-size="30" x="3488" y="576" fill="white">M</text>
<text text-anchor="middle" font-family="monospace" font-size="8" x="3488" y="556">rec[1]</text>
<rect x="3472" y="624" width="32" height="32" stroke="black" fill="black"/>
<text dominant-baseline="central" text-anchor="middle" font-family="monospace" font-size="30" x="3488" y="640" fill="white">M</text>
<text text-anchor="middle" font-family="monospace" font-size="8" x="3488" y="620">rec[2]</text>
<rect x="3536" y="688" width="32" height="32" stroke="black" fill="black"/>
<text dominant-baseline="central" text-anchor="middle" font-family="monospace" font-size="30" x="3552" y="704" fill="white">M</text>
<text text-anchor="middle" font-family="monospace" font-size="8" x="3552" y="684">rec[3]</text>
<rect x="3536" y="752" width="32" height="32" stroke="black" fill="black"/>
<text dominant-baseline="central" text-anchor="middle" font-family="monospace" font-size="30" x="3552" y="768" fill="white">M</text>
<text text-anchor="middle" font-family="monospace" font-size="8" x="3552" y="748">rec[4]</text>
<rect x="3536" y="816" width="32" height="32" stroke="black" fill="black"/>
<text dominant-baseline="central" text-anchor="middle" font-family="monospace" font-size="30" x="3552" y="832" fill="white">M</text>
<text text-anchor="middle" font-family="monospace" font-size="8" x="3552" y="812">rec[5]</text>
<rect x="3536" y="496" width="160" height="32" stroke="black" fill="lightgray"/>
<text dominant-baseline="central" text-anchor="middle" font-family="monospace" font-size="16" x="3616" y="512">DETECTOR</text>
<text text-anchor="middle" font-family="monospace" font-size="8" x="3616" y="492">D0 = rec[0]</text>
<rect x="3536" y="560" width="160" height="32" stroke="black" fill="lightgray"/>
<text dominant-baseline="central" text-anchor="middle" font-family="monospace" font-size="16" x="3616" y="576">DETECTOR</text>
<text text-anchor="middle" font-family="monospace" font-size="8" x="3616" y="556">D1 = rec[1]</text>
<rect x="3536" y="624" width="160" height="32" stroke="black" fill="lightgray"/>
<text dominant-baseline="central" text-anchor="middle" font-family="monospace" font-size="16" x="3616" y="640">DETECTOR</text>
<text text-anchor="middle" font-family="monospace" font-size="8" x="3616" y="620">D2 = rec[2]</text>
<rect x="3536" y="48" width="32" height="32" stroke="black" fill="pink"/>
<text dominant-baseline="central" text-anchor="middle" font-family="monospace" font-size="12" x="3552" y="64">ERR<tspan baseline-shift="sub" font-size="10">X</tspan></text>
<text dominant-baseline="hanging" text-anchor="middle" font-family="monospace" font-size="10" stroke="red" x="3552" y="84">0.0024</text>
<rect x="3536" y="112" width="32" height="32" stroke="black" fill="pink"/>
<text dominant-baseline="central" text-anchor="middle" font-family="monospace" font-size="12" x="3552" y="128">ERR<tspan baseline-shift="sub" font-size="10">X</tspan></text>
<text dominant-baseline="hanging" text-anchor="middle" font-family="monospace" font-size="10" stroke="red" x="3552" y="148">0.0024</text>
<rect x="3536" y="176" width="32" height="32" stroke="black" fill="pink"/>
<text dominant-baseline="central" text-anchor="middle" font-family="monospace" font-size="12" x="3552" y="192">ERR<tspan baseline-shift="sub" font-size="10">X</tspan></text>
<text dominant-baseline="hanging" text-anchor="middle" font-family="monospace" font-size="10" stroke="red" x="3552" y="212">0.0024</text>
<rect x="3536" y="240" width="32" height="32" stroke="black" fill="pink"/>
<text dominant-baseline="central" text-anchor="middle" font-family="monospace" font-size="12" x="3552" y="256">ERR<tspan baseline-shift="sub" font-size="10">X</tspan></text>
<text dominant-baseline="hanging" text-anchor="middle" font-family="monospace" font-size="10" stroke="red" x="3552" y="276">0.0024</text>
<rect x="3536" y="304" width="32" height="32" stroke="black" fill="pink"/>
<text dominant-baseline="central" text-anchor="middle" font-family="monospace" font-size="12" x="3552" y="320">ERR<tspan baseline-shift="sub" font-size="10">X</tspan></text>
<text dominant-baseline="hanging" text-anchor="middle" font-family="monospace" font-size="10" stroke="red" x="3552" y="340">0.0024</text>
<rect x="3536" y="368" width="32" height="32" stroke="black" fill="pink"/>
<text dominant-baseline="central" text-anchor="middle" font-family="monospace" font-size="12" x="3552" y="384">ERR<tspan baseline-shift="sub" font-size="10">X</tspan></text>
<text dominant-baseline="hanging" text-anchor="middle" font-family="monospace" font-size="10" stroke="red" x="3552" y="404">0.0024</text>
<rect x="3536" y="432" width="32" height="32" stroke="black" fill="pink"/>
<text dominant-baseline="central" text-anchor="middle" font-family="monospace" font-size="12" x="3552" y="448">ERR<tspan baseline-shift="sub" font-size="10">X</tspan></text>
<text dominant-baseline="hanging" text-anchor="middle" font-family="monospace" font-size="10" stroke="red" x="3552" y="468">0.0024</text>
<rect x="3728" y="48" width="32" height="32" stroke="black" fill="black"/>
<text dominant-baseline="central" text-anchor="middle" font-family="monospace" font-size="30" x="3744" y="64" fill="white">M</text>
<text text-anchor="middle" font-family="monospace" font-size="8" x="3744" y="44">rec[6]</text>
<rect x="3728" y="112" width="32" height="32" stroke="black" fill="black"/>
<text dominant-baseline="central" text-anchor="middle" font-family="monospace" font-size="30" x="3744" y="128" fill="white">M</text>
<text text-anchor="middle" font-family="monospace" font-size="8" x="3744" y="108">rec[7]</text>
<rect x="3728" y="176" width="32" height="32" stroke="black" fill="black"/>
<text dominant-baseline="central" text-anchor="middle" font-family="monospace" font-size="30" x="3744" y="192" fill="white">M</text>
<text text-anchor="middle" font-family="monospace" font-size="8" x="3744" y="172">rec[8]</text>
<rect x="3728" y="240" width="32" height="32" stroke="black" fill="black"/>
<text dominant-baseline="central" text-anchor="middle" font-family="monospace" font-size="30" x="3744" y="256" fill="white">M</text>
<text text-anchor="middle" font-family="monospace" font-size="8" x="3744" y="236">rec[9]</text>
<rect x="3728" y="304" width="32" height="32" stroke="black" fill="black"/>
<text dominant-baseline="central" text-anchor="middle" font-family="monospace" font-size="30" x="3744" y="320" fill="white">M</text>
<text text-anchor="middle" font-family="monospace" font-size="8" x="3744" y="300">rec[10]</text>
<rect x="3728" y="368" width="32" height="32" stroke="black" fill="black"/>
<text dominant-baseline="central" text-anchor="middle" font-family="monospace" font-size="30" x="3744" y="384" fill="white">M</text>
<text text-anchor="middle" font-family="monospace" font-size="8" x="3744" y="364">rec[11]</text>
<rect x="3728" y="432" width="32" height="32" stroke="black" fill="black"/>
<text dominant-baseline="central" text-anchor="middle" font-family="monospace" font-size="30" x="3744" y="448" fill="white">M</text>
<text text-anchor="middle" font-family="monospace" font-size="8" x="3744" y="428">rec[12]</text>
<rect x="3792" y="240" width="416" height="32" stroke="black" fill="lightgray"/>
<text dominant-baseline="central" text-anchor="middle" font-family="monospace" font-size="16" x="4000" y="256">DETECTOR</text>
<text text-anchor="middle" font-family="monospace" font-size="8" x="4000" y="236">D3 = rec[9]*rec[10]*rec[11]*rec[12]*rec[0]</text>
<rect x="3792" y="112" width="416" height="32" stroke="black" fill="lightgray"/>
<text dominant-baseline="central" text-anchor="middle" font-family="monospace" font-size="16" x="4000" y="128">DETECTOR</text>
<text text-anchor="middle" font-family="monospace" font-size="8" x="4000" y="108">D4 = rec[7]*rec[8]*rec[11]*rec[12]*rec[1]</text>
<rect x="3792" y="48" width="416" height="32" stroke="black" fill="lightgray"/>
<text dominant-baseline="central" text-anchor="middle" font-family="monospace" font-size="16" x="4000" y="64">DETECTOR</text>
<text text-anchor="middle" font-family="monospace" font-size="8" x="4000" y="44">D5 = rec[6]*rec[8]*rec[10]*rec[12]*rec[2]</text>
<rect x="4240" y="48" width="544" height="32" stroke="black" fill="lightgray"/>
<text dominant-baseline="central" text-anchor="middle" font-family="monospace" font-size="16" x="4512" y="64">OBS_INCLUDE(0)</text>
<text text-anchor="middle" font-family="monospace" font-size="8" x="4512" y="44">L0 *= rec[6]*rec[7]*rec[8]*rec[9]*rec[10]*rec[11]*rec[12]</text>
</svg>
