<svg viewBox="0 0 5152 928"  version="1.1" xmlns="http://www.w3.org/2000/svg">
<g id="qubit_lines">
<path id="qubit_line:0" d="M64,64 L5120,64 " stroke="black"/>
<text dominant-baseline="central" text-anchor="end" font-family="monospace" font-size="12" x="64" y="64">q0</text>
<path id="qubit_line:1" d="M64,128 L5120,128 " stroke="black"/>
<text dominant-baseline="central" text-anchor="end" font-family="monospace" font-size="12" x="64" y="128">q1</text>
<path id="qubit_line:2" d="M64,192 L5120,192 " stroke="black"/>
<text dominant-baseline="central" text-anchor="end" font-family="monospace" font-size="12" x="64" y="192">q2</text>
<path id="qubit_line:3" d="M64,256 L5120,256 " stroke="black"/>
<text dominant-baseline="central" text-anchor="end" font-family="monospace" font-size="12" x="64" y="256">q3</text>
<path id="qubit_line:4" d="M64,320 L5120,320 " stroke="black"/>
<text dominant-baseline="central" text-anchor="end" font-family="monospace" font-size="12" x="64" y="320">q4</text>
<path id="qubit_line:5" d="M64,384 L5120,384 " stroke="black"/>
<text dominant-baseline="central" text-anchor="end" font-family="monospace" font-size="12" x="64" y="384">q5</text>
<path id="qubit_line:6" d="M64,448 L5120,448 " stroke="black"/>
<text dominant-baseline="central" text-anchor="end" font-family="monospace" font-size="12" x="64" y="448">q6</text>
<path id="qubit_line:7" d="M64,512 L5120,512 " stroke="black"/>
<text dominant-baseline="central" text-anchor="end" font-family="monospace" font-size="12" x="64" y="512">q7</text>
<path id="qubit_line:8" d="M64,576 L5120,576 " stroke="black"/>
<text dominant-baseline="central" text-anchor="end" font-family="monospace" font-size="12" x="64" y="576">q8</text>
<path id="qubit_line:9" d="M64,640 L5120,640 " stroke="black"/>
<text dominant-baseline="central" text-anchor="end" font-family="monospace" font-size="12" x="64" y="640">q9</text>
<path id="qubit_line:10" d="M64,704 L5120,704 " stroke="black"/>
<text dominant-baseline="central" text-anchor="end" font-family="monospace" font-size="12" x="64" y="704">q10</text>
<path id="qubit_line:11" d="M64,768 L5120,768 " stroke="black"/>
<text dominant-baseline="central" text-anchor="end" font-family="monospace" font-size="12" x="64" y="768">q11</text>
<path id="qubit_line:12" d="M64,832 L5120,832 " stroke="black"/>
<text dominant-baseline="central" text-anchor="end" font-family="monospace" font-size="12" x="64" y="832">q12</text>
</g>
<rect x="80" y="48" width="32" height="32" stroke="black" fill="black"/>
<text dominant-baseline="central" text-anchor="middle" font-family="monospace" font-size="30" x="96" y="64" fill="white">R</text>
<rect x="80" y="112" width="32" height="32" stroke="black" fill="black"/>
<text dominant-baseline="central" text-anchor="middle" font-family="monospace" font-size="30" x="96" y="128" fill="white">R</text>
<rect x="80" y="176" width="32" height="32" stroke="black" fill="black"/>
<text dominant-baseline="central" text-anchor="middle" font-family="monospace" font-size="30" x="96" y="192" fill="white">R</text>
<rect x="80" y="240" width="32" height="32" stroke="black" fill="black"/>
<text dominant-baseline="central" text-anchor="middle" font-family="monospace" font-size="30" x="96" y="256" fill="white">R</text>
<rect x="80" y="304" width="32" height="32" stroke="black" fill="black"/>
<text dominant-baseline="central" text-anchor="middle" font-family="monospace" font-size="30" x="96" y="320" fill="white">R</text>
<rect x="80" y="368" width="32" height="32" stroke="black" fill="black"/>
<text dominant-baseline="central" text-anchor="middle" font-family="monospace" font-size="30" x="96" y="384" fill="white">R</text>
<rect x="80" y="432" width="32" height="32" stroke="black" fill="black"/>
<text dominant-baseline="central" text-anchor="middle" font-family="monospace" font-size="30" x="96" y="448" fill="white">R</text>
<rect x="80" y="496" width="32" height="32" stroke="black" fill="black"/>
<text dominant-baseline="central" text-anchor="middle" font-family="monospace" font-size="30" x="96" y="512" fill="white">R</text>
<rect x="80" y="560" width="32" height="32" stroke="black" fill="black"/>
<text dominant-baseline="central" text-anchor="middle" font-family="monospace" font-size="30" x="96" y="576" fill="white">R</text>
<rect x="80" y="624" width="32" height="32" stroke="black" fill="black"/>
<text dominant-baseline="central" text-anchor="middle" font-family="monospace" font-size="30" x="96" y="640" fill="white">R</text>
<rect x="80" y="688" width="32" height="32" stroke="black" fill="black"/>
<text dominant-baseline="central" text-anchor="middle" font-family="monospace" font-size="30" x="96" y="704" fill="white">R</text>
<rect x="80" y="752" width="32" height="32" stroke="black" fill="black"/>
<text dominant-baseline="central" text-anchor="middle" font-family="monospace" font-size="30" x="96" y="768" fill="white">R</text>
<rect x="80" y="816" width="32" height="32" stroke="black" fill="black"/>
<text dominant-baseline="central" text-anchor="middle" font-family="monospace" font-size="30" x="96" y="832" fill="white">R</text>
<rect x="144" y="688" width="32" height="32" stroke="black" fill="white"/>
<text dominant-baseline="central" text-anchor="middle" font-family="monospace" font-size="30" x="160" y="704">H</text>
<rect x="144" y="752" width="32" height="32" stroke="black" fill="white"/>
<text dominant-baseline="central" text-anchor="middle" font-family="monospace" font-size="30" x="160" y="768">H</text>
<rect x="144" y="816" width="32" height="32" stroke="black" fill="white"/>
<text dominant-baseline="central" text-anchor="middle" font-family="monospace" font-size="30" x="160" y="832">H</text>
<path d="M160,256 L160,512 " stroke="black"/>
<circle cx="160" cy="256" r="12" stroke="none" fill="black"/>
<circle cx="160" cy="512" r="12" stroke="black" fill="white"/>
<path d="M148,512 L172,512 M160,500 L160,524 " stroke="black"/>
<path d="M224,320 L224,512 " stroke="black"/>
<circle cx="224" cy="320" r="12" stroke="none" fill="black"/>
<circle cx="224" cy="512" r="12" stroke="black" fill="white"/>
<path d="M212,512 L236,512 M224,500 L224,524 " stroke="black"/>
<path d="M288,384 L288,512 " stroke="black"/>
<circle cx="288" cy="384" r="12" stroke="none" fill="black"/>
<circle cx="288" cy="512" r="12" stroke="black" fill="white"/>
<path d="M276,512 L300,512 M288,500 L288,524 " stroke="black"/>
<path d="M352,448 L352,512 " stroke="black"/>
<circle cx="352" cy="448" r="12" stroke="none" fill="black"/>
<circle cx="352" cy="512" r="12" stroke="black" fill="white"/>
<path d="M340,512 L364,512 M352,500 L352,524 " stroke="black"/>
<path d="M416,128 L416,576 " stroke="black"/>
<circle cx="416" cy="128" r="12" stroke="none" fill="black"/>
<circle cx="416" cy="576" r="12" stroke="black" fill="white"/>
<path d="M404,576 L428,576 M416,564 L416,588 " stroke="black"/>
<path d="M480,192 L480,576 " stroke="black"/>
<circle cx="480" cy="192" r="12" stroke="none" fill="black"/>
<circle cx="480" cy="576" r="12" stroke="black" fill="white"/>
<path d="M468,576 L492,576 M480,564 L480,588 " stroke="black"/>
<path d="M544,384 L544,576 " stroke="black"/>
<circle cx="544" cy="384" r="12" stroke="none" fill="black"/>
<circle cx="544" cy="576" r="12" stroke="black" fill="white"/>
<path d="M532,576 L556,576 M544,564 L544,588 " stroke="black"/>
<path d="M608,448 L608,576 " stroke="black"/>
<circle cx="608" cy="448" r="12" stroke="none" fill="black"/>
<circle cx="608" cy="576" r="12" stroke="black" fill="white"/>
<path d="M596,576 L620,576 M608,564 L608,588 " stroke="black"/>
<path d="M672,64 L672,640 " stroke="black"/>
<circle cx="672" cy="64" r="12" stroke="none" fill="black"/>
<circle cx="672" cy="640" r="12" stroke="black" fill="white"/>
<path d="M660,640 L684,640 M672,628 L672,652 " stroke="black"/>
<path d="M736,192 L736,640 " stroke="black"/>
<circle cx="736" cy="192" r="12" stroke="none" fill="black"/>
<circle cx="736" cy="640" r="12" stroke="black" fill="white"/>
<path d="M724,640 L748,640 M736,628 L736,652 " stroke="black"/>
<path d="M800,320 L800,640 " stroke="black"/>
<circle cx="800" cy="320" r="12" stroke="none" fill="black"/>
<circle cx="800" cy="640" r="12" stroke="black" fill="white"/>
<path d="M788,640 L812,640 M800,628 L800,652 " stroke="black"/>
<path d="M864,448 L864,640 " stroke="black"/>
<circle cx="864" cy="448" r="12" stroke="none" fill="black"/>
<circle cx="864" cy="640" r="12" stroke="black" fill="white"/>
<path d="M852,640 L876,640 M864,628 L864,652 " stroke="black"/>
<path d="M928,256 L928,704 " stroke="black"/>
<circle cx="928" cy="704" r="12" stroke="none" fill="black"/>
<circle cx="928" cy="256" r="12" stroke="black" fill="white"/>
<path d="M916,256 L940,256 M928,244 L928,268 " stroke="black"/>
<path d="M992,320 L992,704 " stroke="black"/>
<circle cx="992" cy="704" r="12" stroke="none" fill="black"/>
<circle cx="992" cy="320" r="12" stroke="black" fill="white"/>
<path d="M980,320 L1004,320 M992,308 L992,332 " stroke="black"/>
<path d="M1056,384 L1056,704 " stroke="black"/>
<circle cx="1056" cy="704" r="12" stroke="none" fill="black"/>
<circle cx="1056" cy="384" r="12" stroke="black" fill="white"/>
<path d="M1044,384 L1068,384 M1056,372 L1056,396 " stroke="black"/>
<path d="M1120,448 L1120,704 " stroke="black"/>
<circle cx="1120" cy="704" r="12" stroke="none" fill="black"/>
<circle cx="1120" cy="448" r="12" stroke="black" fill="white"/>
<path d="M1108,448 L1132,448 M1120,436 L1120,460 " stroke="black"/>
<path d="M1184,128 L1184,768 " stroke="black"/>
<circle cx="1184" cy="768" r="12" stroke="none" fill="black"/>
<circle cx="1184" cy="128" r="12" stroke="black" fill="white"/>
<path d="M1172,128 L1196,128 M1184,116 L1184,140 " stroke="black"/>
<path d="M1248,192 L1248,768 " stroke="black"/>
<circle cx="1248" cy="768" r="12" stroke="none" fill="black"/>
<circle cx="1248" cy="192" r="12" stroke="black" fill="white"/>
<path d="M1236,192 L1260,192 M1248,180 L1248,204 " stroke="black"/>
<path d="M1312,384 L1312,768 " stroke="black"/>
<circle cx="1312" cy="768" r="12" stroke="none" fill="black"/>
<circle cx="1312" cy="384" r="12" stroke="black" fill="white"/>
<path d="M1300,384 L1324,384 M1312,372 L1312,396 " stroke="black"/>
<path d="M1376,448 L1376,768 " stroke="black"/>
<circle cx="1376" cy="768" r="12" stroke="none" fill="black"/>
<circle cx="1376" cy="448" r="12" stroke="black" fill="white"/>
<path d="M1364,448 L1388,448 M1376,436 L1376,460 " stroke="black"/>
<path d="M1440,64 L1440,832 " stroke="black"/>
<circle cx="1440" cy="832" r="12" stroke="none" fill="black"/>
<circle cx="1440" cy="64" r="12" stroke="black" fill="white"/>
<path d="M1428,64 L1452,64 M1440,52 L1440,76 " stroke="black"/>
<path d="M1504,192 L1504,832 " stroke="black"/>
<circle cx="1504" cy="832" r="12" stroke="none" fill="black"/>
<circle cx="1504" cy="192" r="12" stroke="black" fill="white"/>
<path d="M1492,192 L1516,192 M1504,180 L1504,204 " stroke="black"/>
<path d="M1568,320 L1568,832 " stroke="black"/>
<circle cx="1568" cy="832" r="12" stroke="none" fill="black"/>
<circle cx="1568" cy="320" r="12" stroke="black" fill="white"/>
<path d="M1556,320 L1580,320 M1568,308 L1568,332 " stroke="black"/>
<path d="M1632,448 L1632,832 " stroke="black"/>
<circle cx="1632" cy="832" r="12" stroke="none" fill="black"/>
<circle cx="1632" cy="448" r="12" stroke="black" fill="white"/>
<path d="M1620,448 L1644,448 M1632,436 L1632,460 " stroke="black"/>
<rect x="1680" y="688" width="32" height="32" stroke="black" fill="white"/>
<text dominant-baseline="central" text-anchor="middle" font-family="monospace" font-size="30" x="1696" y="704">H</text>
<rect x="1680" y="752" width="32" height="32" stroke="black" fill="white"/>
<text dominant-baseline="central" text-anchor="middle" font-family="monospace" font-size="30" x="1696" y="768">H</text>
<rect x="1680" y="816" width="32" height="32" stroke="black" fill="white"/>
<text dominant-baseline="central" text-anchor="middle" font-family="monospace" font-size="30" x="1696" y="832">H</text>
<rect x="1680" y="496" width="32" height="32" stroke="black" fill="black"/>
<text dominant-baseline="central" text-anchor="middle" font-family="monospace" font-size="30" x="1696" y="512" fill="white">M</text>
<text text-anchor="middle" font-family="monospace" font-size="8" x="1696" y="492">rec[0]</text>
<rect x="1680" y="560" width="32" height="32" stroke="black" fill="black"/>
<text dominant-baseline="central" text-anchor="middle" font-family="monospace" font-size="30" x="1696" y="576" fill="white">M</text>
<text text-anchor="middle" font-family="monospace" font-size="8" x="1696" y="556">rec[1]</text>
<rect x="1680" y="624" width="32" height="32" stroke="black" fill="black"/>
<text dominant-baseline="central" text-anchor="middle" font-family="monospace" font-size="30" x="1696" y="640" fill="white">M</text>
<text text-anchor="middle" font-family="monospace" font-size="8" x="1696" y="620">rec[2]</text>
<rect x="1744" y="688" width="32" height="32" stroke="black" fill="black"/>
<text dominant-baseline="central" text-anchor="middle" font-family="monospace" font-size="30" x="1760" y="704" fill="white">M</text>
<text text-anchor="middle" font-family="monospace" font-size="8" x="1760" y="684">rec[3]</text>
<rect x="1744" y="752" width="32" height="32" stroke="black" fill="black"/>
<text dominant-baseline="central" text-anchor="middle" font-family="monospace" font-size="30" x="1760" y="768" fill="white">M</text>
<text text-anchor="middle" font-family="monospace" font-size="8" x="1760" y="748">rec[4]</text>
<rect x="1744" y="816" width="32" height="32" stroke="black" fill="black"/>
<text dominant-baseline="central" text-anchor="middle" font-family="monospace" font-size="30" x="1760" y="832" fill="white">M</text>
<text text-anchor="middle" font-family="monospace" font-size="8" x="1760" y="812">rec[5]</text>
<rect x="1744" y="496" width="160" height="32" stroke="black" fill="lightgray"/>
<text dominant-baseline="central" text-anchor="middle" font-family="monospace" font-size="16" x="1824" y="512">DETECTOR</text>
<text text-anchor="middle" font-family="monospace" font-size="8" x="1824" y="492">D0 = rec[0]</text>
<rect x="1744" y="560" width="160" height="32" stroke="black" fill="lightgray"/>
<text dominant-baseline="central" text-anchor="middle" font-family="monospace" font-size="16" x="1824" y="576">DETECTOR</text>
<text text-anchor="middle" font-family="monospace" font-size="8" x="1824" y="556">D1 = rec[1]</text>
<rect x="1744" y="624" width="160" height="32" stroke="black" fill="lightgray"/>
<text dominant-baseline="central" text-anchor="middle" font-family="monospace" font-size="16" x="1824" y="640">DETECTOR</text>
<text text-anchor="middle" font-family="monospace" font-size="8" x="1824" y="620">D2 = rec[2]</text>
<rect x="1936" y="496" width="32" height="32" stroke="black" fill="black"/>
<text dominant-baseline="central" text-anchor="middle" font-family="monospace" font-size="30" x="1952" y="512" fill="white">R</text>
<rect x="1936" y="560" width="32" height="32" stroke="black" fill="black"/>
<text dominant-baseline="central" text-anchor="middle" font-family="monospace" font-size="30" x="1952" y="576" fill="white">R</text>
<rect x="1936" y="624" width="32" height="32" stroke="black" fill="black"/>
<text dominant-baseline="central" text-anchor="middle" font-family="monospace" font-size="30" x="1952" y="640" fill="white">R</text>
<rect x="1936" y="688" width="32" height="32" stroke="black" fill="black"/>
<text dominant-baseline="central" text-anchor="middle" font-family="monospace" font-size="30" x="1952" y="704" fill="white">R</text>
<rect x="1936" y="752" width="32" height="32" stroke="black" fill="black"/>
<text dominant-baseline="central" text-anchor="middle" font-family="monospace" font-size="30" x="1952" y="768" fill="white">R</text>
<rect x="1936" y="816" width="32" height="32" stroke="black" fill="black"/>
<text dominant-baseline="central" text-anchor="middle" font-family="monospace" font-size="30" x="1952" y="832" fill="white">R</text>
<rect x="2000" y="688" width="32" height="32" stroke="black" fill="white"/>
<text dominant-baseline="central" text-anchor="middle" font-family="monospace" font-size="30" x="2016" y="704">H</text>
<rect x="2000" y="752" width="32" height="32" stroke="black" fill="white"/>
<text dominant-baseline="central" text-anchor="middle" font-family="monospace" font-size="30" x="2016" y="768">H</text>
<rect x="2000" y="816" width="32" height="32" stroke="black" fill="white"/>
<text dominant-baseline="central" text-anchor="middle" font-family="monospace" font-size="30" x="2016" y="832">H</text>
<path d="M2016,256 L2016,512 " stroke="black"/>
<circle cx="2016" cy="256" r="12" stroke="none" fill="black"/>
<circle cx="2016" cy="512" r="12" stroke="black" fill="white"/>
<path d="M2004,512 L2028,512 M2016,500 L2016,524 " stroke="black"/>
<path d="M2080,320 L2080,512 " stroke="black"/>
<circle cx="2080" cy="320" r="12" stroke="none" fill="black"/>
<circle cx="2080" cy="512" r="12" stroke="black" fill="white"/>
<path d="M2068,512 L2092,512 M2080,500 L2080,524 " stroke="black"/>
<path d="M2144,384 L2144,512 " stroke="black"/>
<circle cx="2144" cy="384" r="12" stroke="none" fill="black"/>
<circle cx="2144" cy="512" r="12" stroke="black" fill="white"/>
<path d="M2132,512 L2156,512 M2144,500 L2144,524 " stroke="black"/>
<path d="M2208,448 L2208,512 " stroke="black"/>
<circle cx="2208" cy="448" r="12" stroke="none" fill="black"/>
<circle cx="2208" cy="512" r="12" stroke="black" fill="white"/>
<path d="M2196,512 L2220,512 M2208,500 L2208,524 " stroke="black"/>
<path d="M2272,128 L2272,576 " stroke="black"/>
<circle cx="2272" cy="128" r="12" stroke="none" fill="black"/>
<circle cx="2272" cy="576" r="12" stroke="black" fill="white"/>
<path d="M2260,576 L2284,576 M2272,564 L2272,588 " stroke="black"/>
<path d="M2336,192 L2336,576 " stroke="black"/>
<circle cx="2336" cy="192" r="12" stroke="none" fill="black"/>
<circle cx="2336" cy="576" r="12" stroke="black" fill="white"/>
<path d="M2324,576 L2348,576 M2336,564 L2336,588 " stroke="black"/>
<path d="M2400,384 L2400,576 " stroke="black"/>
<circle cx="2400" cy="384" r="12" stroke="none" fill="black"/>
<circle cx="2400" cy="576" r="12" stroke="black" fill="white"/>
<path d="M2388,576 L2412,576 M2400,564 L2400,588 " stroke="black"/>
<path d="M2464,448 L2464,576 " stroke="black"/>
<circle cx="2464" cy="448" r="12" stroke="none" fill="black"/>
<circle cx="2464" cy="576" r="12" stroke="black" fill="white"/>
<path d="M2452,576 L2476,576 M2464,564 L2464,588 " stroke="black"/>
<path d="M2528,64 L2528,640 " stroke="black"/>
<circle cx="2528" cy="64" r="12" stroke="none" fill="black"/>
<circle cx="2528" cy="640" r="12" stroke="black" fill="white"/>
<path d="M2516,640 L2540,640 M2528,628 L2528,652 " stroke="black"/>
<path d="M2592,192 L2592,640 " stroke="black"/>
<circle cx="2592" cy="192" r="12" stroke="none" fill="black"/>
<circle cx="2592" cy="640" r="12" stroke="black" fill="white"/>
<path d="M2580,640 L2604,640 M2592,628 L2592,652 " stroke="black"/>
<path d="M2656,320 L2656,640 " stroke="black"/>
<circle cx="2656" cy="320" r="12" stroke="none" fill="black"/>
<circle cx="2656" cy="640" r="12" stroke="black" fill="white"/>
<path d="M2644,640 L2668,640 M2656,628 L2656,652 " stroke="black"/>
<path d="M2720,448 L2720,640 " stroke="black"/>
<circle cx="2720" cy="448" r="12" stroke="none" fill="black"/>
<circle cx="2720" cy="640" r="12" stroke="black" fill="white"/>
<path d="M2708,640 L2732,640 M2720,628 L2720,652 " stroke="black"/>
<path d="M2784,256 L2784,704 " stroke="black"/>
<circle cx="2784" cy="704" r="12" stroke="none" fill="black"/>
<circle cx="2784" cy="256" r="12" stroke="black" fill="white"/>
<path d="M2772,256 L2796,256 M2784,244 L2784,268 " stroke="black"/>
<path d="M2848,320 L2848,704 " stroke="black"/>
<circle cx="2848" cy="704" r="12" stroke="none" fill="black"/>
<circle cx="2848" cy="320" r="12" stroke="black" fill="white"/>
<path d="M2836,320 L2860,320 M2848,308 L2848,332 " stroke="black"/>
<path d="M2912,384 L2912,704 " stroke="black"/>
<circle cx="2912" cy="704" r="12" stroke="none" fill="black"/>
<circle cx="2912" cy="384" r="12" stroke="black" fill="white"/>
<path d="M2900,384 L2924,384 M2912,372 L2912,396 " stroke="black"/>
<path d="M2976,448 L2976,704 " stroke="black"/>
<circle cx="2976" cy="704" r="12" stroke="none" fill="black"/>
<circle cx="2976" cy="448" r="12" stroke="black" fill="white"/>
<path d="M2964,448 L2988,448 M2976,436 L2976,460 " stroke="black"/>
<path d="M3040,128 L3040,768 " stroke="black"/>
<circle cx="3040" cy="768" r="12" stroke="none" fill="black"/>
<circle cx="3040" cy="128" r="12" stroke="black" fill="white"/>
<path d="M3028,128 L3052,128 M3040,116 L3040,140 " stroke="black"/>
<path d="M3104,192 L3104,768 " stroke="black"/>
<circle cx="3104" cy="768" r="12" stroke="none" fill="black"/>
<circle cx="3104" cy="192" r="12" stroke="black" fill="white"/>
<path d="M3092,192 L3116,192 M3104,180 L3104,204 " stroke="black"/>
<path d="M3168,384 L3168,768 " stroke="black"/>
<circle cx="3168" cy="768" r="12" stroke="none" fill="black"/>
<circle cx="3168" cy="384" r="12" stroke="black" fill="white"/>
<path d="M3156,384 L3180,384 M3168,372 L3168,396 " stroke="black"/>
<path d="M3232,448 L3232,768 " stroke="black"/>
<circle cx="3232" cy="768" r="12" stroke="none" fill="black"/>
<circle cx="3232" cy="448" r="12" stroke="black" fill="white"/>
<path d="M3220,448 L3244,448 M3232,436 L3232,460 " stroke="black"/>
<path d="M3296,64 L3296,832 " stroke="black"/>
<circle cx="3296" cy="832" r="12" stroke="none" fill="black"/>
<circle cx="3296" cy="64" r="12" stroke="black" fill="white"/>
<path d="M3284,64 L3308,64 M3296,52 L3296,76 " stroke="black"/>
<path d="M3360,192 L3360,832 " stroke="black"/>
<circle cx="3360" cy="832" r="12" stroke="none" fill="black"/>
<circle cx="3360" cy="192" r="12" stroke="black" fill="white"/>
<path d="M3348,192 L3372,192 M3360,180 L3360,204 " stroke="black"/>
<path d="M3424,320 L3424,832 " stroke="black"/>
<circle cx="3424" cy="832" r="12" stroke="none" fill="black"/>
<circle cx="3424" cy="320" r="12" stroke="black" fill="white"/>
<path d="M3412,320 L3436,320 M3424,308 L3424,332 " stroke="black"/>
<path d="M3488,448 L3488,832 " stroke="black"/>
<circle cx="3488" cy="832" r="12" stroke="none" fill="black"/>
<circle cx="3488" cy="448" r="12" stroke="black" fill="white"/>
<path d="M3476,448 L3500,448 M3488,436 L3488,460 " stroke="black"/>
<rect x="3536" y="688" width="32" height="32" stroke="black" fill="white"/>
<text dominant-baseline="central" text-anchor="middle" font-family="monospace" font-size="30" x="3552" y="704">H</text>
<rect x="3536" y="752" width="32" height="32" stroke="black" fill="white"/>
<text dominant-baseline="central" text-anchor="middle" font-family="monospace" font-size="30" x="3552" y="768">H</text>
<rect x="3536" y="816" width="32" height="32" stroke="black" fill="white"/>
<text dominant-baseline="central" text-anchor="middle" font-family="monospace" font-size="30" x="3552" y="832">H</text>
<rect x="3536" y="496" width="32" height="32" stroke="black" fill="black"/>
<text dominant-baseline="central" text-anchor="middle" font-family="monospace" font-size="30" x="3552" y="512" fill="white">M</text>
<text text-anchor="middle" font-family="monospace" font-size="8" x="3552" y="492">rec[6]</text>
<rect x="3536" y="560" width="32" height="32" stroke="black" fill="black"/>
<text dominant-baseline="central" text-anchor="middle" font-family="monospace" font-size="30" x="3552" y="576" fill="white">M</text>
<text text-anchor="middle" font-family="monospace" font-size="8" x="3552" y="556">rec[7]</text>
<rect x="3536" y="624" width="32" height="32" stroke="black" fill="black"/>
<text dominant-baseline="central" text-anchor="middle" font-family="monospace" font-size="30" x="3552" y="640" fill="white">M</text>
<text text-anchor="middle" font-family="monospace" font-size="8" x="3552" y="620">rec[8]</text>
<rect x="3600" y="688" width="32" height="32" stroke="black" fill="black"/>
<text dominant-baseline="central" text-anchor="middle" font-family="monospace" font-size="30" x="3616" y="704" fill="white">M</text>
<text text-anchor="middle" font-family="monospace" font-size="8" x="3616" y="684">rec[9]</text>
<rect x="3600" y="752" width="32" height="32" stroke="black" fill="black"/>
<text dominant-baseline="central" text-anchor="middle" font-family="monospace" font-size="30" x="3616" y="768" fill="white">M</text>
<text text-anchor="middle" font-family="monospace" font-size="8" x="3616" y="748">rec[10]</text>
<rect x="3600" y="816" width="32" height="32" stroke="black" fill="black"/>
<text dominant-baseline="central" text-anchor="middle" font-family="monospace" font-size="30" x="3616" y="832" fill="white">M</text>
<text text-anchor="middle" font-family="monospace" font-size="8" x="3616" y="812">rec[11]</text>
<rect x="3600" y="496" width="224" height="32" stroke="black" fill="lightgray"/>
<text dominant-baseline="central" text-anchor="middle" font-family="monospace" font-size="16" x="3712" y="512">DETECTOR</text>
<text text-anchor="middle" font-family="monospace" font-size="8" x="3712" y="492">D3 = rec[6]*rec[0]</text>
<rect x="3600" y="560" width="224" height="32" stroke="black" fill="lightgray"/>
<text dominant-baseline="central" text-anchor="middle" font-family="monospace" font-size="16" x="3712" y="576">DETECTOR</text>
<text text-anchor="middle" font-family="monospace" font-size="8" x="3712" y="556">D4 = rec[7]*rec[1]</text>
<rect x="3600" y="624" width="224" height="32" stroke="black" fill="lightgray"/>
<text dominant-baseline="central" text-anchor="middle" font-family="monospace" font-size="16" x="3712" y="640">DETECTOR</text>
<text text-anchor="middle" font-family="monospace" font-size="8" x="3712" y="620">D5 = rec[8]*rec[2]</text>
<rect x="3856" y="688" width="224" height="32" stroke="black" fill="lightgray"/>
<text dominant-baseline="central" text-anchor="middle" font-family="monospace" font-size="16" x="3968" y="704">DETECTOR</text>
<text text-anchor="middle" font-family="monospace" font-size="8" x="3968" y="684">D6 = rec[9]*rec[3]</text>
<rect x="3856" y="752" width="224" height="32" stroke="black" fill="lightgray"/>
<text dominant-baseline="central" text-anchor="middle" font-family="monospace" font-size="16" x="3968" y="768">DETECTOR</text>
<text text-anchor="middle" font-family="monospace" font-size="8" x="3968" y="748">D7 = rec[10]*rec[4]</text>
<rect x="3856" y="816" width="224" height="32" stroke="black" fill="lightgray"/>
<text dominant-baseline="central" text-anchor="middle" font-family="monospace" font-size="16" x="3968" y="832">DETECTOR</text>
<text text-anchor="middle" font-family="monospace" font-size="8" x="3968" y="812">D8 = rec[11]*rec[5]</text>
<rect x="3856" y="48" width="32" height="32" stroke="black" fill="black"/>
<text dominant-baseline="central" text-anchor="middle" font-family="monospace" font-size="30" x="3872" y="64" fill="white">M</text>
<text text-anchor="middle" font-family="monospace" font-size="8" x="3872" y="44">rec[12]</text>
<rect x="3856" y="112" width="32" height="32" stroke="black" fill="black"/>
<text dominant-baseline="central" text-anchor="middle" font-family="monospace" font-size="30" x="3872" y="128" fill="white">M</text>
<text text-anchor="middle" font-family="monospace" font-size="8" x="3872" y="108">rec[13]</text>
<rect x="3856" y="176" width="32" height="32" stroke="black" fill="black"/>
<text dominant-baseline="central" text-anchor="middle" font-family="monospace" font-size="30" x="3872" y="192" fill="white">M</text>
<text text-anchor="middle" font-family="monospace" font-size="8" x="3872" y="172">rec[14]</text>
<rect x="3856" y="240" width="32" height="32" stroke="black" fill="black"/>
<text dominant-baseline="central" text-anchor="middle" font-family="monospace" font-size="30" x="3872" y="256" fill="white">M</text>
<text text-anchor="middle" font-family="monospace" font-size="8" x="3872" y="236">rec[15]</text>
<rect x="3856" y="304" width="32" height="32" stroke="black" fill="black"/>
<text dominant-baseline="central" text-anchor="middle" font-family="monospace" font-size="30" x="3872" y="320" fill="white">M</text>
<text text-anchor="middle" font-family="monospace" font-size="8" x="3872" y="300">rec[16]</text>
<rect x="3856" y="368" width="32" height="32" stroke="black" fill="black"/>
<text dominant-baseline="central" text-anchor="middle" font-family="monospace" font-size="30" x="3872" y="384" fill="white">M</text>
<text text-anchor="middle" font-family="monospace" font-size="8" x="3872" y="364">rec[17]</text>
<rect x="3856" y="432" width="32" height="32" stroke="black" fill="black"/>
<text dominant-baseline="central" text-anchor="middle" font-family="monospace" font-size="30" x="3872" y="448" fill="white">M</text>
<text text-anchor="middle" font-family="monospace" font-size="8" x="3872" y="428">rec[18]</text>
<rect x="4112" y="240" width="416" height="32" stroke="black" fill="lightgray"/>
<text dominant-baseline="central" text-anchor="middle" font-family="monospace" font-size="16" x="4320" y="256">DETECTOR</text>
<text text-anchor="middle" font-family="monospace" font-size="8" x="4320" y="236">D9 = rec[15]*rec[16]*rec[17]*rec[18]*rec[6]</text>
<rect x="4112" y="112" width="416" height="32" stroke="black" fill="lightgray"/>
<text dominant-baseline="central" text-anchor="middle" font-family="monospace" font-size="16" x="4320" y="128">DETECTOR</text>
<text text-anchor="middle" font-family="monospace" font-size="8" x="4320" y="108">D10 = rec[13]*rec[14]*rec[17]*rec[18]*rec[7]</text>
<rect x="4112" y="48" width="416" height="32" stroke="black" fill="lightgray"/>
<text dominant-baseline="central" text-anchor="middle" font-family="monospace" font-size="16" x="4320" y="64">DETECTOR</text>
<text text-anchor="middle" font-family="monospace" font-size="8" x="4320" y="44">D11 = rec[12]*rec[14]*rec[16]*rec[18]*rec[8]</text>
<rect x="4560" y="48" width="544" height="32" stroke="black" fill="lightgray"/>
<text dominant-baseline="central" text-anchor="middle" font-family="monospace" font-size="16" x="4832" y="64">OBS_INCLUDE(0)</text>
<text text-anchor="middle" font-family="monospace" font-size="8" x="4832" y="44">L0 *= rec[12]*rec[13]*rec[14]*rec[15]*rec[16]*rec[17]*rec[18]</text>
</svg>
