<svg viewBox="0 0 1824 928"  version="1.1" xmlns="http://www.w3.org/2000/svg">
<g id="qubit_lines">
<path id="qubit_line:0" d="M64,64 L1792,64 " stroke="black"/>
<text dominant-baseline="central" text-anchor="end" font-family="monospace" font-size="12" x="64" y="64">q0</text>
<path id="qubit_line:1" d="M64,128 L1792,128 " stroke="black"/>
<text dominant-baseline="central" text-anchor="end" font-family="monospace" font-size="12" x="64" y="128">q1</text>
<path id="qubit_line:2" d="M64,192 L1792,192 " stroke="black"/>
<text dominant-baseline="central" text-anchor="end" font-family="monospace" font-size="12" x="64" y="192">q2</text>
<path id="qubit_line:3" d="M64,256 L1792,256 " stroke="black"/>
<text dominant-baseline="central" text-anchor="end" font-family="monospace" font-size="12" x="64" y="256">q3</text>
<path id="qubit_line:4" d="M64,320 L1792,320 " stroke="black"/>
<text dominant-baseline="central" text-anchor="end" font-family="monospace" font-size="12" x="64" y="320">q4</text>
<path id="qubit_line:5" d="M64,384 L1792,384 " stroke="black"/>
<text dominant-baseline="central" text-anchor="end" font-family="monospace" font-size="12" x="64" y="384">q5</text>
<path id="qubit_line:6" d="M64,448 L1792,448 " stroke="black"/>
<text dominant-baseline="central" text-anchor="end" font-family="monospace" font-size="12" x="64" y="448">q6</text>
<path id="qubit_line:7" d="M64,512 L1792,512 " stroke="black"/>
<text dominant-baseline="central" text-anchor="end" font-family="monospace" font-size="12" x="64" y="512">q7</text>
<path id="qubit_line:8" d="M64,576 L1792,576 " stroke="black"/>
<text dominant-baseline="central" text-anchor="end" font-family="monospace" font-size="12" x="64" y="576">q8</text>
<path id="qubit_line:9" d="M64,640 L1792,640 " stroke="black"/>
<text dominant-baseline="central" text-anchor="end" font-family="monospace" font-size="12" x="64" y="640">q9</text>
<path id="qubit_line:10" d="M64,704 L1792,704 " stroke="black"/>
<text dominant-baseline="central" text-anchor="end" font-family="monospace" font-size="12" x="64" y="704">q10</text>
<path id="qubit_line:11" d="M64,768 L1792,768 " stroke="black"/>
<text dominant-baseline="central" text-anchor="end" font-family="monospace" font-size="12" x="64" y="768">q11</text>
<path id="qubit_line:12" d="M64,832 L1792,832 " stroke="black"/>
<text dominant-baseline="central" text-anchor="end" font-family="monospace" font-size="12" x="64" y="832">q12</text>
</g>
<rect x="80" y="496" width="32" height="32" stroke="black" fill="black"/>
<text dominant-baseline="central" text-anchor="middle" font-family="monospace" font-size="30" x="96" y="512" fill="white">R</text>
<rect x="80" y="560" width="32" height="32" stroke="black" fill="black"/>
<text dominant-baseline="central" text-anchor="middle" font-family="monospace" font-size="30" x="96" y="576" fill="white">R</text>
<rect x="80" y="624" width="32" height="32" stroke="black" fill="black"/>
<text dominant-baseline="central" text-anchor="middle" font-family="monospace" font-size="30" x="96" y="640" fill="white">R</text>
<rect x="80" y="688" width="32" height="32" stroke="black" fill="black"/>
<text dominant-baseline="central" text-anchor="middle" font-family="monospace" font-size="30" x="96" y="704" fill="white">R</text>
<rect x="80" y="752" width="32" height="32" stroke="black" fill="black"/>
<text dominant-baseline="central" text-anchor="middle" font-family="monospace" font-size="30" x="96" y="768" fill="white">R</text>
<rect x="80" y="816" width="32" height="32" stroke="black" fill="black"/>
<text dominant-baseline="central" text-anchor="middle" font-family="monospace" font-size="30" x="96" y="832" fill="white">R</text>
<rect x="144" y="688" width="32" height="32" stroke="black" fill="white"/>
<text dominant-baseline="central" text-anchor="middle" font-family="monospace" font-size="30" x="160" y="704">H</text>
<rect x="144" y="752" width="32" height="32" stroke="black" fill="white"/>
<text dominant-baseline="central" text-anchor="middle" font-family="monospace" font-size="30" x="160" y="768">H</text>
<rect x="144" y="816" width="32" height="32" stroke="black" fill="white"/>
<text dominant-baseline="central" text-anchor="middle" font-family="monospace" font-size="30" x="160" y="832">H</text>
<path d="M160,256 L160,512 " stroke="black"/>
<circle cx="160" cy="256" r="12" stroke="none" fill="black"/>
<circle cx="160" cy="512" r="12" stroke="black" fill="white"/>
<path d="M148,512 L172,512 M160,500 L160,524 " stroke="black"/>
<path d="M224,320 L224,512 " stroke="black"/>
<circle cx="224" cy="320" r="12" stroke="none" fill="black"/>
<circle cx="224" cy="512" r="12" stroke="black" fill="white"/>
<path d="M212,512 L236,512 M224,500 L224,524 " stroke="black"/>
<path d="M288,384 L288,512 " stroke="black"/>
<circle cx="288" cy="384" r="12" stroke="none" fill="black"/>
<circle cx="288" cy="512" r="12" stroke="black" fill="white"/>
<path d="M276,512 L300,512 M288,500 L288,524 " stroke="black"/>
<path d="M352,448 L352,512 " stroke="black"/>
<circle cx="352" cy="448" r="12" stroke="none" fill="black"/>
<circle cx="352" cy="512" r="12" stroke="black" fill="white"/>
<path d="M340,512 L364,512 M352,500 L352,524 " stroke="black"/>
<path d="M416,128 L416,576 " stroke="black"/>
<circle cx="416" cy="128" r="12" stroke="none" fill="black"/>
<circle cx="416" cy="576" r="12" stroke="black" fill="white"/>
<path d="M404,576 L428,576 M416,564 L416,588 " stroke="black"/>
<path d="M480,192 L480,576 " stroke="black"/>
<circle cx="480" cy="192" r="12" stroke="none" fill="black"/>
<circle cx="480" cy="576" r="12" stroke="black" fill="white"/>
<path d="M468,576 L492,576 M480,564 L480,588 " stroke="black"/>
<path d="M544,384 L544,576 " stroke="black"/>
<circle cx="544" cy="384" r="12" stroke="none" fill="black"/>
<circle cx="544" cy="576" r="12" stroke="black" fill="white"/>
<path d="M532,576 L556,576 M544,564 L544,588 " stroke="black"/>
<path d="M608,448 L608,576 " stroke="black"/>
<circle cx="608" cy="448" r="12" stroke="none" fill="black"/>
<circle cx="608" cy="576" r="12" stroke="black" fill="white"/>
<path d="M596,576 L620,576 M608,564 L608,588 " stroke="black"/>
<path d="M672,64 L672,640 " stroke="black"/>
<circle cx="672" cy="64" r="12" stroke="none" fill="black"/>
<circle cx="672" cy="640" r="12" stroke="black" fill="white"/>
<path d="M660,640 L684,640 M672,628 L672,652 " stroke="black"/>
<path d="M736,192 L736,640 " stroke="black"/>
<circle cx="736" cy="192" r="12" stroke="none" fill="black"/>
<circle cx="736" cy="640" r="12" stroke="black" fill="white"/>
<path d="M724,640 L748,640 M736,628 L736,652 " stroke="black"/>
<path d="M800,320 L800,640 " stroke="black"/>
<circle cx="800" cy="320" r="12" stroke="none" fill="black"/>
<circle cx="800" cy="640" r="12" stroke="black" fill="white"/>
<path d="M788,640 L812,640 M800,628 L800,652 " stroke="black"/>
<path d="M864,448 L864,640 " stroke="black"/>
<circle cx="864" cy="448" r="12" stroke="none" fill="black"/>
<circle cx="864" cy="640" r="12" stroke="black" fill="white"/>
<path d="M852,640 L876,640 M864,628 L864,652 " stroke="black"/>
<path d="M928,256 L928,704 " stroke="black"/>
<circle cx="928" cy="704" r="12" stroke="none" fill="black"/>
<circle cx="928" cy="256" r="12" stroke="black" fill="white"/>
<path d="M916,256 L940,256 M928,244 L928,268 " stroke="black"/>
<path d="M992,320 L992,704 " stroke="black"/>
<circle cx="992" cy="704" r="12" stroke="none" fill="black"/>
<circle cx="992" cy="320" r="12" stroke="black" fill="white"/>
<path d="M980,320 L1004,320 M992,308 L992,332 " stroke="black"/>
<path d="M1056,384 L1056,704 " stroke="black"/>
<circle cx="1056" cy="704" r="12" stroke="none" fill="black"/>
<circle cx="1056" cy="384" r="12" stroke="black" fill="white"/>
<path d="M1044,384 L1068,384 M1056,372 L1056,396 " stroke="black"/>
<path d="M1120,448 L1120,704 " stroke="black"/>
<circle cx="1120" cy="704" r="12" stroke="none" fill="black"/>
<circle cx="1120" cy="448" r="12" stroke="black" fill="white"/>
<path d="M1108,448 L1132,448 M1120,436 L1120,460 " stroke="black"/>
<path d="M1184,128 L1184,768 " stroke="black"/>
<circle cx="1184" cy="768" r="12" stroke="none" fill="black"/>
<circle cx="1184" cy="128" r="12" stroke="black" fill="white"/>
<path d="M1172,128 L1196,128 M1184,116 L1184,140 " stroke="black"/>
<path d="M1248,192 L1248,768 " stroke="black"/>
<circle cx="1248" cy="768" r="12" stroke="none" fill="black"/>
<circle cx="1248" cy="192" r="12" stroke="black" fill="white"/>
<path d="M1236,192 L1260,192 M1248,180 L1248,204 " stroke="black"/>
<path d="M1312,384 L1312,768 " stroke="black"/>
<circle cx="1312" cy="768" r="12" stroke="none" fill="black"/>
<circle cx="1312" cy="384" r="12" stroke="black" fill="white"/>
<path d="M1300,384 L1324,384 M1312,372 L1312,396 " stroke="black"/>
<path d="M1376,448 L1376,768 " stroke="black"/>
<circle cx="1376" cy="768" r="12" stroke="none" fill="black"/>
<circle cx="1376" cy="448" r="12" stroke="black" fill="white"/>
<path d="M1364,448 L1388,448 M1376,436 L1376,460 " stroke="black"/>
<path d="M1440,64 L1440,832 " stroke="black"/>
<circle cx="1440" cy="832" r="12" stroke="none" fill="black"/>
<circle cx="1440" cy="64" r="12" stroke="black" fill="white"/>
<path d="M1428,64 L1452,64 M1440,52 L1440,76 " stroke="black"/>
<path d="M1504,192 L1504,832 " stroke="black"/>
<circle cx="1504" cy="832" r="12" stroke="none" fill="black"/>
<circle cx="1504" cy="192" r="12" stroke="black" fill="white"/>
<path d="M1492,192 L1516,192 M1504,180 L1504,204 " stroke="black"/>
<path d="M1568,320 L1568,832 " stroke="black"/>
<circle cx="1568" cy="832" r="12" stroke="none" fill="black"/>
<circle cx="1568" cy="320" r="12" stroke="black" fill="white"/>
<path d="M1556,320 L1580,320 M1568,308 L1568,332 " stroke="black"/>
<path d="M1632,448 L1632,832 " stroke="black"/>
<circle cx="1632" cy="832" r="12" stroke="none" fill="black"/>
<circle cx="1632" cy="448" r="12" stroke="black" fill="white"/>
<path d="M1620,448 L1644,448 M1632,436 L1632,460 " stroke="black"/>
<rect x="1680" y="688" width="32" height="32" stroke="black" fill="white"/>
<text dominant-baseline="central" text-anchor="middle" font-family="monospace" font-size="30" x="1696" y="704">H</text>
<rect x="1680" y="752" width="32" height="32" stroke="black" fill="white"/>
<text dominant-baseline="central" text-anchor="middle" font-family="monospace" font-size="30" x="1696" y="768">H</text>
<rect x="1680" y="816" width="32" height="32" stroke="black" fill="white"/>
<text dominant-baseline="central" text-anchor="middle" font-family="monospace" font-size="30" x="1696" y="832">H</text>
<rect x="1680" y="496" width="32" height="32" stroke="black" fill="black"/>
<text dominant-baseline="central" text-anchor="middle" font-family="monospace" font-size="30" x="1696" y="512" fill="white">M</text>
<text text-anchor="middle" font-family="monospace" font-size="8" x="1696" y="492">rec[0]</text>
<rect x="1680" y="560" width="32" height="32" stroke="black" fill="black"/>
<text dominant-baseline="central" text-anchor="middle" font-family="monospace" font-size="30" x="1696" y="576" fill="white">M</text>
<text text-anchor="middle" font-family="monospace" font-size="8" x="1696" y="556">rec[1]</text>
<rect x="1680" y="624" width="32" height="32" stroke="black" fill="black"/>
<text dominant-baseline="central" text-anchor="middle" font-family="monospace" font-size="30" x="1696" y="640" fill="white">M</text>
<text text-anchor="middle" font-family="monospace" font-size="8" x="1696" y="620">rec[2]</text>
<rect x="1744" y="688" width="32" height="32" stroke="black" fill="black"/>
<text dominant-baseline="central" text-anchor="middle" font-family="monospace" font-size="30" x="1760" y="704" fill="white">M</text>
<text text-anchor="middle" font-family="monospace" font-size="8" x="1760" y="684">rec[3]</text>
<rect x="1744" y="752" width="32" height="32" stroke="black" fill="black"/>
<text dominant-baseline="central" text-anchor="middle" font-family="monospace" font-size="30" x="1760" y="768" fill="white">M</text>
<text text-anchor="middle" font-family="monospace" font-size="8" x="1760" y="748">rec[4]</text>
<rect x="1744" y="816" width="32" height="32" stroke="black" fill="black"/>
<text dominant-baseline="central" text-anchor="middle" font-family="monospace" font-size="30" x="1760" y="832" fill="white">M</text>
<text text-anchor="middle" font-family="monospace" font-size="8" x="1760" y="812">rec[5]</text>
</svg>
