<svg viewBox="0 0 2272 1440"  version="1.1" xmlns="http://www.w3.org/2000/svg">
<g id="qubit_lines">
<path id="qubit_line:0" d="M64,64 L2240,64 " stroke="black"/>
<text dominant-baseline="central" text-anchor="end" font-family="monospace" font-size="12" x="64" y="64">q0</text>
<path id="qubit_line:1" d="M64,128 L2240,128 " stroke="black"/>
<text dominant-baseline="central" text-anchor="end" font-family="monospace" font-size="12" x="64" y="128">q1</text>
<path id="qubit_line:2" d="M64,192 L2240,192 " stroke="black"/>
<text dominant-baseline="central" text-anchor="end" font-family="monospace" font-size="12" x="64" y="192">q2</text>
<path id="qubit_line:3" d="M64,256 L2240,256 " stroke="black"/>
<text dominant-baseline="central" text-anchor="end" font-family="monospace" font-size="12" x="64" y="256">q3</text>
<path id="qubit_line:4" d="M64,320 L2240,320 " stroke="black"/>
<text dominant-baseline="central" text-anchor="end" font-family="monospace" font-size="12" x="64" y="320">q4</text>
<path id="qubit_line:5" d="M64,384 L2240,384 " stroke="black"/>
<text dominant-baseline="central" text-anchor="end" font-family="monospace" font-size="12" x="64" y="384">q5</text>
<path id="qubit_line:6" d="M64,448 L2240,448 " stroke="black"/>
<text dominant-baseline="central" text-anchor="end" font-family="monospace" font-size="12" x="64" y="448">q6</text>
<path id="qubit_line:7" d="M64,512 L2240,512 " stroke="black"/>
<text dominant-baseline="central" text-anchor="end" font-family="monospace" font-size="12" x="64" y="512">q7</text>
<path id="qubit_line:8" d="M64,576 L2240,576 " stroke="black"/>
<text dominant-baseline="central" text-anchor="end" font-family="monospace" font-size="12" x="64" y="576">q8</text>
<path id="qubit_line:9" d="M64,640 L2240,640 " stroke="black"/>
<text dominant-baseline="central" text-anchor="end" font-family="monospace" font-size="12" x="64" y="640">q9</text>
<path id="qubit_line:10" d="M64,704 L2240,704 " stroke="black"/>
<text dominant-baseline="central" text-anchor="end" font-family="monospace" font-size="12" x="64" y="704">q10</text>
<path id="qubit_line:11" d="M64,768 L2240,768 " stroke="black"/>
<text dominant-baseline="central" text-anchor="end" font-family="monospace" font-size="12" x="64" y="768">q11</text>
<path id="qubit_line:12" d="M64,832 L2240,832 " stroke="black"/>
<text dominant-baseline="central" text-anchor="end" font-family="monospace" font-size="12" x="64" y="832">q12</text>
<path id="qubit_line:13" d="M64,896 L2240,896 " stroke="black"/>
<text dominant-baseline="central" text-anchor="end" font-family="monospace" font-size="12" x="64" y="896">q13</text>
<path id="qubit_line:14" d="M64,960 L2240,960 " stroke="black"/>
<text dominant-baseline="central" text-anchor="end" font-family="monospace" font-size="12" x="64" y="960">q14</text>
<path id="qubit_line:15" d="M64,1024 L2240,1024 " stroke="black"/>
<text dominant-baseline="central" text-anchor="end" font-family="monospace" font-size="12" x="64" y="1024">q15</text>
<path id="qubit_line:16" d="M64,1088 L2240,1088 " stroke="black"/>
<text dominant-baseline="central" text-anchor="end" font-family="monospace" font-size="12" x="64" y="1088">q16</text>
<path id="qubit_line:17" d="M64,1152 L2240,1152 " stroke="black"/>
<text dominant-baseline="central" text-anchor="end" font-family="monospace" font-size="12" x="64" y="1152">q17</text>
<path id="qubit_line:18" d="M64,1216 L2240,1216 " stroke="black"/>
<text dominant-baseline="central" text-anchor="end" font-family="monospace" font-size="12" x="64" y="1216">q18</text>
<path id="qubit_line:19" d="M64,1280 L2240,1280 " stroke="black"/>
<text dominant-baseline="central" text-anchor="end" font-family="monospace" font-size="12" x="64" y="1280">q19</text>
<path id="qubit_line:20" d="M64,1344 L2240,1344 " stroke="black"/>
<text dominant-baseline="central" text-anchor="end" font-family="monospace" font-size="12" x="64" y="1344">q20</text>
</g>
<rect x="80" y="48" width="32" height="32" stroke="black" fill="black"/>
<text dominant-baseline="central" text-anchor="middle" font-family="monospace" font-size="30" x="96" y="64" fill="white">R</text>
<rect x="80" y="112" width="32" height="32" stroke="black" fill="black"/>
<text dominant-baseline="central" text-anchor="middle" font-family="monospace" font-size="30" x="96" y="128" fill="white">R</text>
<rect x="80" y="176" width="32" height="32" stroke="black" fill="black"/>
<text dominant-baseline="central" text-anchor="middle" font-family="monospace" font-size="30" x="96" y="192" fill="white">R</text>
<rect x="80" y="240" width="32" height="32" stroke="black" fill="black"/>
<text dominant-baseline="central" text-anchor="middle" font-family="monospace" font-size="30" x="96" y="256" fill="white">R</text>
<rect x="80" y="304" width="32" height="32" stroke="black" fill="black"/>
<text dominant-baseline="central" text-anchor="middle" font-family="monospace" font-size="30" x="96" y="320" fill="white">R</text>
<rect x="80" y="368" width="32" height="32" stroke="black" fill="black"/>
<text dominant-baseline="central" text-anchor="middle" font-family="monospace" font-size="30" x="96" y="384" fill="white">R</text>
<rect x="80" y="432" width="32" height="32" stroke="black" fill="black"/>
<text dominant-baseline="central" text-anchor="middle" font-family="monospace" font-size="30" x="96" y="448" fill="white">R</text>
<rect x="80" y="496" width="32" height="32" stroke="black" fill="black"/>
<text dominant-baseline="central" text-anchor="middle" font-family="monospace" font-size="30" x="96" y="512" fill="white">R</text>
<rect x="80" y="560" width="32" height="32" stroke="black" fill="black"/>
<text dominant-baseline="central" text-anchor="middle" font-family="monospace" font-size="30" x="96" y="576" fill="white">R</text>
<rect x="80" y="624" width="32" height="32" stroke="black" fill="black"/>
<text dominant-baseline="central" text-anchor="middle" font-family="monospace" font-size="30" x="96" y="640" fill="white">R</text>
<rect x="80" y="688" width="32" height="32" stroke="black" fill="black"/>
<text dominant-baseline="central" text-anchor="middle" font-family="monospace" font-size="30" x="96" y="704" fill="white">R</text>
<rect x="80" y="752" width="32" height="32" stroke="black" fill="black"/>
<text dominant-baseline="central" text-anchor="middle" font-family="monospace" font-size="30" x="96" y="768" fill="white">R</text>
<rect x="80" y="816" width="32" height="32" stroke="black" fill="black"/>
<text dominant-baseline="central" text-anchor="middle" font-family="monospace" font-size="30" x="96" y="832" fill="white">R</text>
<rect x="80" y="880" width="32" height="32" stroke="black" fill="black"/>
<text dominant-baseline="central" text-anchor="middle" font-family="monospace" font-size="30" x="96" y="896" fill="white">R</text>
<rect x="80" y="944" width="32" height="32" stroke="black" fill="black"/>
<text dominant-baseline="central" text-anchor="middle" font-family="monospace" font-size="30" x="96" y="960" fill="white">R</text>
<rect x="80" y="1008" width="32" height="32" stroke="black" fill="black"/>
<text dominant-baseline="central" text-anchor="middle" font-family="monospace" font-size="30" x="96" y="1024" fill="white">R</text>
<rect x="80" y="1072" width="32" height="32" stroke="black" fill="black"/>
<text dominant-baseline="central" text-anchor="middle" font-family="monospace" font-size="30" x="96" y="1088" fill="white">R</text>
<rect x="80" y="1136" width="32" height="32" stroke="black" fill="black"/>
<text dominant-baseline="central" text-anchor="middle" font-family="monospace" font-size="30" x="96" y="1152" fill="white">R</text>
<rect x="80" y="1200" width="32" height="32" stroke="black" fill="black"/>
<text dominant-baseline="central" text-anchor="middle" font-family="monospace" font-size="30" x="96" y="1216" fill="white">R</text>
<rect x="80" y="1264" width="32" height="32" stroke="black" fill="black"/>
<text dominant-baseline="central" text-anchor="middle" font-family="monospace" font-size="30" x="96" y="1280" fill="white">R</text>
<rect x="80" y="1328" width="32" height="32" stroke="black" fill="black"/>
<text dominant-baseline="central" text-anchor="middle" font-family="monospace" font-size="30" x="96" y="1344" fill="white">R</text>
<rect x="144" y="48" width="32" height="32" stroke="black" fill="white"/>
<text dominant-baseline="central" text-anchor="middle" font-family="monospace" font-size="30" x="160" y="64">H</text>
<rect x="144" y="112" width="32" height="32" stroke="black" fill="white"/>
<text dominant-baseline="central" text-anchor="middle" font-family="monospace" font-size="30" x="160" y="128">H</text>
<rect x="144" y="176" width="32" height="32" stroke="black" fill="white"/>
<text dominant-baseline="central" text-anchor="middle" font-family="monospace" font-size="30" x="160" y="192">H</text>
<rect x="144" y="240" width="32" height="32" stroke="black" fill="white"/>
<text dominant-baseline="central" text-anchor="middle" font-family="monospace" font-size="30" x="160" y="256">H</text>
<rect x="144" y="304" width="32" height="32" stroke="black" fill="white"/>
<text dominant-baseline="central" text-anchor="middle" font-family="monospace" font-size="30" x="160" y="320">H</text>
<rect x="144" y="368" width="32" height="32" stroke="black" fill="white"/>
<text dominant-baseline="central" text-anchor="middle" font-family="monospace" font-size="30" x="160" y="384">H</text>
<rect x="144" y="432" width="32" height="32" stroke="black" fill="white"/>
<text dominant-baseline="central" text-anchor="middle" font-family="monospace" font-size="30" x="160" y="448">H</text>
<path d="M224,64 L224,512 " stroke="black"/>
<circle cx="224" cy="64" r="12" stroke="none" fill="black"/>
<circle cx="224" cy="512" r="12" stroke="black" fill="white"/>
<path d="M212,512 L236,512 M224,500 L224,524 " stroke="black"/>
<path d="M288,128 L288,576 " stroke="black"/>
<circle cx="288" cy="128" r="12" stroke="none" fill="black"/>
<circle cx="288" cy="576" r="12" stroke="black" fill="white"/>
<path d="M276,576 L300,576 M288,564 L288,588 " stroke="black"/>
<path d="M352,192 L352,640 " stroke="black"/>
<circle cx="352" cy="192" r="12" stroke="none" fill="black"/>
<circle cx="352" cy="640" r="12" stroke="black" fill="white"/>
<path d="M340,640 L364,640 M352,628 L352,652 " stroke="black"/>
<path d="M416,256 L416,704 " stroke="black"/>
<circle cx="416" cy="256" r="12" stroke="none" fill="black"/>
<circle cx="416" cy="704" r="12" stroke="black" fill="white"/>
<path d="M404,704 L428,704 M416,692 L416,716 " stroke="black"/>
<path d="M480,320 L480,768 " stroke="black"/>
<circle cx="480" cy="320" r="12" stroke="none" fill="black"/>
<circle cx="480" cy="768" r="12" stroke="black" fill="white"/>
<path d="M468,768 L492,768 M480,756 L480,780 " stroke="black"/>
<path d="M544,384 L544,832 " stroke="black"/>
<circle cx="544" cy="384" r="12" stroke="none" fill="black"/>
<circle cx="544" cy="832" r="12" stroke="black" fill="white"/>
<path d="M532,832 L556,832 M544,820 L544,844 " stroke="black"/>
<path d="M608,448 L608,896 " stroke="black"/>
<circle cx="608" cy="448" r="12" stroke="none" fill="black"/>
<circle cx="608" cy="896" r="12" stroke="black" fill="white"/>
<path d="M596,896 L620,896 M608,884 L608,908 " stroke="black"/>
<path d="M672,512 L672,960 " stroke="black"/>
<circle cx="672" cy="512" r="12" stroke="none" fill="black"/>
<circle cx="672" cy="960" r="12" stroke="black" fill="white"/>
<path d="M660,960 L684,960 M672,948 L672,972 " stroke="black"/>
<path d="M736,576 L736,1024 " stroke="black"/>
<circle cx="736" cy="576" r="12" stroke="none" fill="black"/>
<circle cx="736" cy="1024" r="12" stroke="black" fill="white"/>
<path d="M724,1024 L748,1024 M736,1012 L736,1036 " stroke="black"/>
<path d="M800,640 L800,1088 " stroke="black"/>
<circle cx="800" cy="640" r="12" stroke="none" fill="black"/>
<circle cx="800" cy="1088" r="12" stroke="black" fill="white"/>
<path d="M788,1088 L812,1088 M800,1076 L800,1100 " stroke="black"/>
<path d="M864,704 L864,1152 " stroke="black"/>
<circle cx="864" cy="704" r="12" stroke="none" fill="black"/>
<circle cx="864" cy="1152" r="12" stroke="black" fill="white"/>
<path d="M852,1152 L876,1152 M864,1140 L864,1164 " stroke="black"/>
<path d="M928,768 L928,1216 " stroke="black"/>
<circle cx="928" cy="768" r="12" stroke="none" fill="black"/>
<circle cx="928" cy="1216" r="12" stroke="black" fill="white"/>
<path d="M916,1216 L940,1216 M928,1204 L928,1228 " stroke="black"/>
<path d="M992,832 L992,1280 " stroke="black"/>
<circle cx="992" cy="832" r="12" stroke="none" fill="black"/>
<circle cx="992" cy="1280" r="12" stroke="black" fill="white"/>
<path d="M980,1280 L1004,1280 M992,1268 L992,1292 " stroke="black"/>
<path d="M1056,896 L1056,1344 " stroke="black"/>
<circle cx="1056" cy="896" r="12" stroke="none" fill="black"/>
<circle cx="1056" cy="1344" r="12" stroke="black" fill="white"/>
<path d="M1044,1344 L1068,1344 M1056,1332 L1056,1356 " stroke="black"/>
<rect x="1040" y="48" width="32" height="32" stroke="black" fill="black"/>
<text dominant-baseline="central" text-anchor="middle" font-family="monospace" font-size="30" x="1056" y="64" fill="white">M</text>
<text text-anchor="middle" font-family="monospace" font-size="8" x="1056" y="44">rec[0]</text>
<rect x="1040" y="112" width="32" height="32" stroke="black" fill="black"/>
<text dominant-baseline="central" text-anchor="middle" font-family="monospace" font-size="30" x="1056" y="128" fill="white">M</text>
<text text-anchor="middle" font-family="monospace" font-size="8" x="1056" y="108">rec[1]</text>
<rect x="1040" y="176" width="32" height="32" stroke="black" fill="black"/>
<text dominant-baseline="central" text-anchor="middle" font-family="monospace" font-size="30" x="1056" y="192" fill="white">M</text>
<text text-anchor="middle" font-family="monospace" font-size="8" x="1056" y="172">rec[2]</text>
<rect x="1040" y="240" width="32" height="32" stroke="black" fill="black"/>
<text dominant-baseline="central" text-anchor="middle" font-family="monospace" font-size="30" x="1056" y="256" fill="white">M</text>
<text text-anchor="middle" font-family="monospace" font-size="8" x="1056" y="236">rec[3]</text>
<rect x="1040" y="304" width="32" height="32" stroke="black" fill="black"/>
<text dominant-baseline="central" text-anchor="middle" font-family="monospace" font-size="30" x="1056" y="320" fill="white">M</text>
<text text-anchor="middle" font-family="monospace" font-size="8" x="1056" y="300">rec[4]</text>
<rect x="1040" y="368" width="32" height="32" stroke="black" fill="black"/>
<text dominant-baseline="central" text-anchor="middle" font-family="monospace" font-size="30" x="1056" y="384" fill="white">M</text>
<text text-anchor="middle" font-family="monospace" font-size="8" x="1056" y="364">rec[5]</text>
<rect x="1040" y="432" width="32" height="32" stroke="black" fill="black"/>
<text dominant-baseline="central" text-anchor="middle" font-family="monospace" font-size="30" x="1056" y="448" fill="white">M</text>
<text text-anchor="middle" font-family="monospace" font-size="8" x="1056" y="428">rec[6]</text>
<rect x="1040" y="496" width="32" height="32" stroke="black" fill="black"/>
<text dominant-baseline="central" text-anchor="middle" font-family="monospace" font-size="30" x="1056" y="512" fill="white">M</text>
<text text-anchor="middle" font-family="monospace" font-size="8" x="1056" y="492">rec[7]</text>
<rect x="1040" y="560" width="32" height="32" stroke="black" fill="black"/>
<text dominant-baseline="central" text-anchor="middle" font-family="monospace" font-size="30" x="1056" y="576" fill="white">M</text>
<text text-anchor="middle" font-family="monospace" font-size="8" x="1056" y="556">rec[8]</text>
<rect x="1040" y="624" width="32" height="32" stroke="black" fill="black"/>
<text dominant-baseline="central" text-anchor="middle" font-family="monospace" font-size="30" x="1056" y="640" fill="white">M</text>
<text text-anchor="middle" font-family="monospace" font-size="8" x="1056" y="620">rec[9]</text>
<rect x="1040" y="688" width="32" height="32" stroke="black" fill="black"/>
<text dominant-baseline="central" text-anchor="middle" font-family="monospace" font-size="30" x="1056" y="704" fill="white">M</text>
<text text-anchor="middle" font-family="monospace" font-size="8" x="1056" y="684">rec[10]</text>
<rect x="1040" y="752" width="32" height="32" stroke="black" fill="black"/>
<text dominant-baseline="central" text-anchor="middle" font-family="monospace" font-size="30" x="1056" y="768" fill="white">M</text>
<text text-anchor="middle" font-family="monospace" font-size="8" x="1056" y="748">rec[11]</text>
<rect x="1040" y="816" width="32" height="32" stroke="black" fill="black"/>
<text dominant-baseline="central" text-anchor="middle" font-family="monospace" font-size="30" x="1056" y="832" fill="white">M</text>
<text text-anchor="middle" font-family="monospace" font-size="8" x="1056" y="812">rec[12]</text>
<rect x="1104" y="880" width="32" height="32" stroke="black" fill="black"/>
<text dominant-baseline="central" text-anchor="middle" font-family="monospace" font-size="30" x="1120" y="896" fill="white">M</text>
<text text-anchor="middle" font-family="monospace" font-size="8" x="1120" y="876">rec[13]</text>
<rect x="1104" y="944" width="32" height="32" stroke="black" fill="black"/>
<text dominant-baseline="central" text-anchor="middle" font-family="monospace" font-size="30" x="1120" y="960" fill="white">M</text>
<text text-anchor="middle" font-family="monospace" font-size="8" x="1120" y="940">rec[14]</text>
<rect x="1104" y="1008" width="32" height="32" stroke="black" fill="black"/>
<text dominant-baseline="central" text-anchor="middle" font-family="monospace" font-size="30" x="1120" y="1024" fill="white">M</text>
<text text-anchor="middle" font-family="monospace" font-size="8" x="1120" y="1004">rec[15]</text>
<rect x="1104" y="1072" width="32" height="32" stroke="black" fill="black"/>
<text dominant-baseline="central" text-anchor="middle" font-family="monospace" font-size="30" x="1120" y="1088" fill="white">M</text>
<text text-anchor="middle" font-family="monospace" font-size="8" x="1120" y="1068">rec[16]</text>
<rect x="1104" y="1136" width="32" height="32" stroke="black" fill="black"/>
<text dominant-baseline="central" text-anchor="middle" font-family="monospace" font-size="30" x="1120" y="1152" fill="white">M</text>
<text text-anchor="middle" font-family="monospace" font-size="8" x="1120" y="1132">rec[17]</text>
<rect x="1104" y="1200" width="32" height="32" stroke="black" fill="black"/>
<text dominant-baseline="central" text-anchor="middle" font-family="monospace" font-size="30" x="1120" y="1216" fill="white">M</text>
<text text-anchor="middle" font-family="monospace" font-size="8" x="1120" y="1196">rec[18]</text>
<rect x="1104" y="1264" width="32" height="32" stroke="black" fill="black"/>
<text dominant-baseline="central" text-anchor="middle" font-family="monospace" font-size="30" x="1120" y="1280" fill="white">M</text>
<text text-anchor="middle" font-family="monospace" font-size="8" x="1120" y="1260">rec[19]</text>
<rect x="1104" y="1328" width="32" height="32" stroke="black" fill="black"/>
<text dominant-baseline="central" text-anchor="middle" font-family="monospace" font-size="30" x="1120" y="1344" fill="white">M</text>
<text text-anchor="middle" font-family="monospace" font-size="8" x="1120" y="1324">rec[20]</text>
<rect x="1104" y="48" width="544" height="32" stroke="black" fill="lightgray"/>
<text dominant-baseline="central" text-anchor="middle" font-family="monospace" font-size="16" x="1376" y="64">OBS_INCLUDE(0)</text>
<text text-anchor="middle" font-family="monospace" font-size="8" x="1376" y="44">L0 *= rec[0]*rec[1]*rec[2]*rec[3]*rec[4]*rec[5]*rec[6]</text>
<rect x="1104" y="496" width="544" height="32" stroke="black" fill="lightgray"/>
<text dominant-baseline="central" text-anchor="middle" font-family="monospace" font-size="16" x="1376" y="512">OBS_INCLUDE(1)</text>
<text text-anchor="middle" font-family="monospace" font-size="8" x="1376" y="492">L1 *= rec[7]*rec[8]*rec[9]*rec[10]*rec[11]*rec[12]*rec[13]</text>
<rect x="1680" y="944" width="544" height="32" stroke="black" fill="lightgray"/>
<text dominant-baseline="central" text-anchor="middle" font-family="monospace" font-size="16" x="1952" y="960">OBS_INCLUDE(2)</text>
<text text-anchor="middle" font-family="monospace" font-size="8" x="1952" y="940">L2 *= rec[14]*rec[15]*rec[16]*rec[17]*rec[18]*rec[19]*rec[20]</text>
</svg>
